<svg width="16" height="17" viewBox="0 0 16 17" fill="none" xmlns="http://www.w3.org/2000/svg">
<path id="Vector" d="M11.4372 12.2003H11.3336C11.2114 11.6072 10.9963 11.0618 10.6882 10.564C10.3801 10.0663 10.0056 9.63737 9.56477 9.27729C9.12389 8.91722 8.62724 8.63657 8.07482 8.43535C7.5224 8.23413 6.94342 8.13352 6.33788 8.13352C5.87045 8.13352 5.41895 8.19441 4.98339 8.31621C4.54782 8.438 4.14147 8.60744 3.76434 8.82455C3.38721 9.04166 3.0446 9.30642 2.73652 9.61884C2.42844 9.93126 2.16285 10.2755 1.93976 10.6514C1.71666 11.0274 1.54403 11.4325 1.42186 11.8667C1.29969 12.3009 1.23861 12.751 1.23861 13.217H0.21875C0.21875 12.5815 0.311706 11.9699 0.497617 11.3822C0.683528 10.7944 0.951771 10.2516 1.30235 9.75387C1.65292 9.25611 2.06724 8.81396 2.54529 8.42741C3.02335 8.04085 3.56515 7.73637 4.17069 7.51397C3.57046 7.12212 3.10303 6.62966 2.76839 6.0366C2.43375 5.44353 2.26377 4.78691 2.25846 4.06676C2.25846 3.50546 2.3647 2.97858 2.57717 2.48612C2.78963 1.99367 3.07912 1.5621 3.44564 1.19143C3.81215 0.820765 4.24505 0.529526 4.74436 0.317716C5.24366 0.105905 5.77484 0 6.33788 0C6.90093 0 7.42944 0.105905 7.92344 0.317716C8.41743 0.529526 8.85034 0.818118 9.22216 1.18349C9.59398 1.54886 9.88613 1.98043 10.0986 2.47818C10.3111 2.97594 10.4173 3.50546 10.4173 4.06676C10.4173 4.41625 10.3748 4.75779 10.2898 5.09139C10.2048 5.42499 10.0773 5.74006 9.90737 6.0366C9.7374 6.33313 9.53821 6.60584 9.3098 6.85471C9.0814 7.10359 8.81315 7.32334 8.50507 7.51397C9.09999 7.74167 9.6471 8.05409 10.1464 8.45123C10.6457 8.84838 11.076 9.31436 11.4372 9.84918V12.2003ZM3.27832 4.06676C3.27832 4.49038 3.35799 4.88488 3.51734 5.25025C3.6767 5.61562 3.89448 5.93863 4.17069 6.21928C4.4469 6.49993 4.77092 6.71968 5.14274 6.87854C5.51456 7.0374 5.91294 7.11683 6.33788 7.11683C6.75751 7.11683 7.15323 7.0374 7.52506 6.87854C7.89688 6.71968 8.22089 6.50258 8.49711 6.22722C8.77332 5.95187 8.99375 5.62886 9.15842 5.25819C9.32308 4.88752 9.40276 4.49038 9.39745 4.06676C9.39745 3.64843 9.31777 3.25394 9.15842 2.88327C8.99907 2.5126 8.78128 2.18959 8.50507 1.91424C8.22886 1.63888 7.90219 1.41913 7.52506 1.25498C7.14792 1.09082 6.7522 1.01139 6.33788 1.01669C5.91294 1.01669 5.51722 1.09612 5.15071 1.25498C4.7842 1.41383 4.46018 1.63094 4.17866 1.90629C3.89713 2.18165 3.6767 2.50731 3.51734 2.88327C3.35799 3.25923 3.27832 3.65373 3.27832 4.06676ZM13.4769 13.217H15.5166V14.2337H13.4769V16.267H12.457V14.2337H10.4173V13.217H12.457V11.1836H13.4769V13.217Z" fill="#212124"/>
</svg>
