<svg width="22" height="24" viewBox="0 0 22 24" fill="none" xmlns="http://www.w3.org/2000/svg">
<path id="Vector" d="M18.1877 0.98333C18.3538 1.05212 18.4957 1.16863 18.5956 1.31811C18.6955 1.4676 18.7488 1.64334 18.7487 1.82311V6.96483C18.7487 7.20587 18.653 7.43704 18.4825 7.60749C18.3121 7.77793 18.0809 7.87369 17.8399 7.87369H12.6982C12.5185 7.87353 12.343 7.82014 12.1936 7.72026C12.0443 7.62038 11.928 7.4785 11.8592 7.31252C11.7905 7.14655 11.7725 6.96393 11.8075 6.78774C11.8425 6.61154 11.929 6.44967 12.0559 6.32257L13.9972 4.37882C12.214 3.63208 10.2342 3.49437 8.36478 3.98704C6.49533 4.47972 4.84059 5.57526 3.657 7.10388C2.47341 8.6325 1.82707 10.5088 1.81816 12.4421C1.80925 14.3754 2.43825 16.2576 3.6077 17.797C4.77714 19.3365 6.42171 20.4473 8.28654 20.9572C10.1514 21.467 12.1323 21.3476 13.9224 20.6173C15.7124 19.8871 17.2116 18.5867 18.1876 16.9179C19.1636 15.2491 19.5619 13.3049 19.3207 11.3867C19.2957 11.1501 19.3645 10.9132 19.5123 10.7267C19.6601 10.5403 19.8752 10.4192 20.1112 10.3896C20.3473 10.3599 20.5856 10.424 20.7749 10.568C20.9642 10.7121 21.0895 10.9247 21.1239 11.1601C21.4188 13.5064 20.921 15.8839 19.7096 17.9148C18.4982 19.9456 16.6426 21.5133 14.4379 22.3684C12.2332 23.2236 9.80593 23.3173 7.5419 22.6345C5.27787 21.9517 3.30705 20.5318 1.94272 18.6003C0.578397 16.6688 -0.101123 14.3367 0.0121848 11.9747C0.125492 9.61265 1.02512 7.35629 2.56807 5.56428C4.11101 3.77226 6.2087 2.54745 8.52769 2.08454C10.8467 1.62163 13.2539 1.94719 15.3666 3.00948L17.1964 1.17964C17.3236 1.05274 17.4855 0.96636 17.6617 0.93142C17.8379 0.896479 18.0217 0.914543 18.1877 0.98333Z" fill="#346ABB"/>
</svg>
