<svg width="36" height="35" viewBox="0 0 36 35" fill="none" xmlns="http://www.w3.org/2000/svg">
<g clip-path="url(#clip0_3687_9881)">
<path d="M25.265 30.6755V27.7886C25.265 26.2573 24.6567 24.7888 23.5739 23.706C22.4911 22.6232 21.0225 22.0149 19.4913 22.0149H7.94374C6.41244 22.0149 4.94387 22.6232 3.86108 23.706C2.77829 24.7888 2.16998 26.2573 2.16998 27.7886V30.6755M33.9256 30.6755V27.7886C33.9247 26.5093 33.4989 25.2666 32.7151 24.2555C31.9314 23.2445 30.834 22.5223 29.5953 22.2025M23.8216 4.88125C25.0635 5.19924 26.1643 5.92154 26.9504 6.93427C27.7365 7.947 28.1632 9.19256 28.1632 10.4746C28.1632 11.7566 27.7365 13.0022 26.9504 14.0149C26.1643 15.0276 25.0635 15.7499 23.8216 16.0679M19.4913 10.4674C19.4913 13.6561 16.9063 16.2411 13.7175 16.2411C10.5287 16.2411 7.94374 13.6561 7.94374 10.4674C7.94374 7.2786 10.5287 4.6936 13.7175 4.6936C16.9063 4.6936 19.4913 7.2786 19.4913 10.4674Z" stroke="#000000" stroke-width="2.88688" stroke-linecap="round" stroke-linejoin="round"/>
</g>
<defs>
<clipPath id="clip0_3687_9881">
<rect width="34.6425" height="34.6425" fill="white" transform="translate(0.726562 0.363281)"/>
</clipPath>
</defs>
</svg>
