<svg width="52" height="52" viewBox="0 0 52 52" fill="none" xmlns="http://www.w3.org/2000/svg">
<g id="Group">
<g id="Group_2">
<path id="Vector" d="M25.6143 11.3436C28.7407 11.3436 31.6515 12.2841 34.0808 13.8955L39.1004 8.87586C35.3488 6.02978 30.676 4.33789 25.6143 4.33789C20.7243 4.33789 15.9797 5.95797 12.123 8.8706L17.1462 13.8937C19.6402 12.2491 22.5861 11.3436 25.6143 11.3436Z" fill="black"/>
<path id="Vector_2" d="M10.2616 26.696C10.2616 23.6555 11.1566 20.7236 12.8117 18.226L7.78682 13.2012C4.85317 17.0718 3.25586 21.7885 3.25586 26.696C3.25586 31.7576 4.94775 36.4305 7.79383 40.182L12.8134 35.1624C11.2021 32.7332 10.2616 29.8223 10.2616 26.696Z" fill="black"/>
<path id="Vector_3" d="M25.613 42.0499C22.4867 42.0499 19.5758 41.1094 17.1466 39.498L12.127 44.5177C15.8785 47.3637 20.5514 49.0556 25.613 49.0556C30.6746 49.0556 35.3475 47.3637 39.099 44.5177L34.0794 39.498C31.6519 41.1094 28.7411 42.0499 25.613 42.0499Z" fill="black"/>
<path id="Vector_4" d="M43.4395 13.2109L38.4199 18.2305C40.0312 20.6598 40.9718 23.5707 40.9718 26.697C40.9718 29.8233 40.0312 32.7342 38.4199 35.1634L43.4395 40.183C46.2856 36.4315 47.9775 31.7586 47.9775 26.697C47.9757 21.6353 46.2856 16.9625 43.4395 13.2109Z" fill="black"/>
</g>
<path id="Vector_5" d="M52.0007 0C48.44 4.15966 44.7795 8.22474 41.084 12.2565C39.245 14.2812 37.3709 16.2708 35.5127 18.278L29.8853 24.2451L24.2037 30.1597L21.3401 33.0951L19.9074 34.5628L18.4642 36.02C14.6198 39.91 10.7386 43.7649 6.75586 47.5234C10.3148 43.362 13.9753 39.2969 17.6708 35.2669L19.0544 33.7537L20.4503 32.2509L23.2421 29.2472L28.8712 23.2818L34.5546 17.369C36.4672 15.4144 38.3623 13.4458 40.2958 11.5087C44.1402 7.61524 48.0197 3.76033 52.0007 0Z" fill="black"/>
<path id="Vector_6" d="M31.3454 18.7207C28.8899 21.6088 26.3608 24.4251 23.8037 27.2169C22.5322 28.6198 21.2344 29.9964 19.9488 31.3836L16.0519 35.51L12.1129 39.5978C10.7853 40.9464 9.47351 42.309 8.13191 43.6436C5.46448 46.3286 2.77077 48.9872 0 51.5741C2.45376 48.686 4.98283 45.8679 7.53993 43.0779C8.81147 41.675 10.1093 40.3001 11.3948 38.9112L15.2935 34.7849L19.2325 30.6988C20.5583 29.3502 21.8737 27.9875 23.2135 26.6529C25.8809 23.9662 28.5764 21.3076 31.3454 18.7207Z" fill="black"/>
</g>
</svg>
