<svg width="31" height="32" viewBox="0 0 31 32" fill="none" xmlns="http://www.w3.org/2000/svg">
<path d="M28.79 9.2775C28.36 6.5875 26.17 5.1575 24.95 4.7375L24.79 4.6875H20.68C20.61 4.2875 20.5 3.8875 20.34 3.5075C20.05 2.8175 19.64 2.1975 19.11 1.6575C18.58 1.1175 17.96 0.7075 17.26 0.4275C15.87 -0.1425 14.3 -0.1425 12.9 0.4275C12.21 0.7175 11.58 1.1275 11.05 1.6575C10.52 2.1875 10.1 2.8075 9.82 3.4975C9.66 3.8775 9.56 4.2775 9.48 4.6775H5.85C2.76 5.1475 1.57 7.5775 1.37 8.8675L0 23.0375C0 29.2975 5.32 31.6375 8.14 32.0075H21.95H22.01C28.45 31.1775 30.15 25.7775 30.14 22.9575C29.83 19.2075 29.13 11.5375 28.77 9.2775H28.79ZM11.68 4.2775C11.87 3.8275 12.14 3.4275 12.48 3.0775C12.82 2.7275 13.23 2.4675 13.68 2.2775C14.58 1.9075 15.61 1.9075 16.5 2.2775C16.95 2.4675 17.35 2.7375 17.7 3.0775C18.05 3.4175 18.31 3.8275 18.5 4.2775C18.56 4.4075 18.59 4.5475 18.63 4.6875H11.56C11.6 4.5475 11.63 4.4075 11.69 4.2775H11.68ZM21.84 30.0275H8.35C6.12 29.7175 2.02 27.8775 2.01 23.1475L3.36 9.1375C3.36 9.1375 3.72 7.0775 6.08 6.6975H24.43C25.11 6.9875 26.53 7.9175 26.81 9.6075C27.16 11.8075 27.85 19.4175 28.16 23.0575C28.16 25.1775 26.83 29.3575 21.83 30.0275H21.84Z" fill="black"/>
<path d="M19.7804 10.3174C19.2304 10.3174 18.7804 10.7674 18.7804 11.3174C18.7804 11.8074 18.6904 12.2774 18.5004 12.7274C18.3104 13.1774 18.0404 13.5774 17.7004 13.9274C17.3604 14.2774 16.9504 14.5374 16.5004 14.7274C15.6004 15.0974 14.5804 15.0974 13.6804 14.7274C13.2304 14.5374 12.8304 14.2674 12.4804 13.9274C12.1304 13.5874 11.8704 13.1774 11.6804 12.7274C11.4904 12.2774 11.4004 11.8074 11.4004 11.3174C11.4004 10.7674 10.9504 10.3174 10.4004 10.3174C9.85039 10.3174 9.40039 10.7674 9.40039 11.3174C9.40039 12.0674 9.55039 12.7974 9.83039 13.4974C10.1204 14.1874 10.5304 14.8174 11.0604 15.3474C11.5904 15.8774 12.2104 16.2974 12.9104 16.5774C13.6004 16.8674 14.3404 17.0074 15.0904 17.0074C15.8404 17.0074 16.5804 16.8574 17.2704 16.5774C17.9604 16.2874 18.5904 15.8774 19.1204 15.3474C19.6504 14.8174 20.0704 14.1974 20.3504 13.4974C20.6404 12.8074 20.7804 12.0674 20.7804 11.3174C20.7804 10.7674 20.3304 10.3174 19.7804 10.3174Z" fill="#000000"/>
</svg>
