<svg width="30" height="30" viewBox="0 0 30 30" fill="none" xmlns="http://www.w3.org/2000/svg">
<path fill-rule="evenodd" clip-rule="evenodd" d="M23.3762 2.62861L23.3762 2.62864L23.3873 2.6308C24.2264 2.79362 25.1472 3.28609 25.9261 4.03142C26.7017 4.77364 27.2183 5.65275 27.4013 6.46504C27.6979 7.89806 27.9935 9.86073 27.9976 12.5679C27.9929 15.2754 27.6978 17.2383 27.4008 18.6706C27.2179 19.4829 26.7013 20.3622 25.9255 21.1045C25.1466 21.8498 24.2258 22.3423 23.3867 22.5051L23.3867 22.5051L23.3755 22.5073C23.0086 22.5807 22.3843 22.6699 21.5782 22.7597L21.5454 22.7633L21.5127 22.7681C19.573 23.0492 17.6283 23.6757 15.8799 24.8586C13.3157 26.479 10.4286 27.5042 7.43049 27.8678C7.59029 27.6956 7.74662 27.5201 7.8994 27.3414L7.90249 27.3378C8.21957 26.9651 8.44175 26.5212 8.55001 26.0441C8.65827 25.5669 8.64941 25.0706 8.52418 24.5976C8.39894 24.1246 8.16106 23.6889 7.83087 23.3278L6.35493 24.6775L7.83087 23.3278C7.50067 22.9667 7.08796 22.691 6.62801 22.524L6.52916 22.4882L6.42709 22.4628C4.66945 22.027 2.97187 20.3294 2.59942 18.6693C2.30176 17.2471 2.00794 15.2973 2 12.6099V12.5683V12.5261C2.00108 12.1606 2.00744 11.8092 2.01835 11.4711L2.01836 11.471C2.08761 9.32049 2.34165 7.69788 2.59961 6.46571C2.78085 5.65369 3.29666 4.77397 4.07287 4.03079C4.85138 3.28541 5.7724 2.79231 6.61216 2.62879L6.61217 2.62882L6.6234 2.62657C6.77299 2.59655 6.97476 2.56206 7.22754 2.52478C9.04588 2.2566 12.5791 1.97529 14.977 2.00172L14.9985 2.00195L15.0199 2.00173C17.7909 1.97289 21.9893 2.35133 23.3762 2.62861ZM5.94573 24.4041C6.1022 24.4608 6.2426 24.5547 6.35493 24.6775C6.46726 24.8003 6.54819 24.9485 6.59079 25.1095C6.6334 25.2704 6.63641 25.4392 6.59958 25.6015C6.56275 25.7639 6.48717 25.9149 6.3793 26.0416C5.91915 26.5798 5.42249 27.0857 4.89286 27.5556C4.67996 27.7425 4.52898 27.9898 4.46001 28.2646C4.39104 28.5394 4.40733 28.8287 4.50673 29.094C4.60612 29.3593 4.78391 29.5881 5.01646 29.7499C5.24901 29.9118 5.52531 29.999 5.80863 30C5.83968 30 5.87132 30 5.90296 29.9971C9.8343 29.8336 13.6534 28.6384 16.9765 26.5315C18.4272 25.5436 20.0777 24.997 21.7996 24.7474C22.6199 24.656 23.3136 24.5593 23.7677 24.4685C26.3222 23.9728 28.7918 21.6392 29.356 19.0917C29.6777 17.5443 29.9929 15.4403 29.9976 12.5683C29.9935 9.69558 29.6777 7.59161 29.3566 6.04424C28.7924 3.49674 26.3228 1.16309 23.7683 0.667422C22.2121 0.356308 17.87 -0.0280433 14.9991 0.00183772C12.487 -0.0258461 8.84859 0.264065 6.93573 0.546183C6.66246 0.586485 6.42441 0.626629 6.22989 0.665664C3.67536 1.16309 1.20579 3.49674 0.644492 6.04424C0.365334 7.37503 0.0931107 9.11751 0.019393 11.4066C0.00782007 11.7652 0.00111085 12.1372 0 12.5231V12.5683V12.6128C0.00820262 15.462 0.32166 17.5525 0.644492 19.0917C1.18704 21.5437 3.49549 23.7965 5.94573 24.4041ZM8.9032 14.616C9.06805 14.4632 9.18163 14.2695 9.2302 14.0582V14.0566C9.34662 13.3559 9.34662 12.6429 9.2302 11.9423C9.18156 11.7306 9.06767 11.5366 8.90237 11.3837C8.73706 11.2308 8.52743 11.1257 8.2989 11.081C7.92163 11.025 7.54001 10.998 7.15794 11.0001C6.77586 10.9979 6.39424 11.025 6.01697 11.081C5.78877 11.126 5.57952 11.2312 5.41455 11.3841C5.24959 11.537 5.13597 11.7308 5.08745 11.9423C4.97085 12.6435 4.97085 13.3571 5.08745 14.0582C5.13624 14.2699 5.25026 14.4638 5.41567 14.6166C5.58109 14.7694 5.79079 14.8744 6.01935 14.9189C6.39658 14.9753 6.77822 15.0023 7.16031 14.9998C7.5424 15.0023 7.92404 14.9752 8.30128 14.9189C8.52929 14.8739 8.73836 14.7687 8.9032 14.616ZM16.7492 14.616C16.914 14.4632 17.0276 14.2695 17.0762 14.0582V14.0566C17.1926 13.3559 17.1926 12.6429 17.0762 11.9423C17.0274 11.7312 16.9137 11.5377 16.7489 11.3852C16.5841 11.2327 16.3751 11.1276 16.1473 11.0827C15.3911 10.9748 14.6215 10.9748 13.8653 11.0827C13.6371 11.1276 13.4279 11.2329 13.2629 11.3857C13.098 11.5386 12.9843 11.7325 12.9358 11.9439C12.8194 12.6446 12.8194 13.3576 12.9358 14.0582C12.9844 14.2696 13.0981 14.4633 13.2631 14.6161C13.428 14.7688 13.6372 14.874 13.8653 14.9189C14.6215 15.0268 15.3911 15.0268 16.1473 14.9189C16.3753 14.8739 16.5843 14.7687 16.7492 14.616ZM24.5857 14.616C24.7505 14.4632 24.8641 14.2695 24.9127 14.0582V14.0566C25.0291 13.3559 25.0291 12.6429 24.9127 11.9423C24.8639 11.7312 24.7502 11.5377 24.5854 11.3852C24.4206 11.2327 24.2116 11.1276 23.9838 11.0827C23.2276 10.9748 22.458 10.9748 21.7018 11.0827C21.4736 11.1276 21.2644 11.2329 21.0994 11.3857C20.9344 11.5386 20.8208 11.7325 20.7723 11.9439C20.6559 12.6446 20.6559 13.3576 20.7723 14.0582C20.8209 14.2696 20.9346 14.4633 21.0996 14.6161C21.2645 14.7688 21.4737 14.874 21.7018 14.9189C22.458 15.0268 23.2276 15.0268 23.9838 14.9189C24.2118 14.8739 24.4208 14.7687 24.5857 14.616Z" fill="black"/>
</svg>
