<svg width="40" height="40" viewBox="0 0 40 40" fill="none" xmlns="http://www.w3.org/2000/svg">
<circle cx="20" cy="20" r="20" fill="#F6F7F9"/>
<path d="M29 29L24.4158 24.4158M24.4158 24.4158C25.1999 23.6316 25.8219 22.7007 26.2463 21.6762C26.6707 20.6516 26.8891 19.5535 26.8891 18.4446C26.8891 17.3356 26.6707 16.2375 26.2463 15.213C25.8219 14.1884 25.1999 13.2575 24.4158 12.4734C23.6316 11.6892 22.7007 11.0672 21.6762 10.6428C20.6516 10.2184 19.5535 10 18.4446 10C17.3356 10 16.2375 10.2184 15.213 10.6428C14.1884 11.0672 13.2575 11.6892 12.4734 12.4734C10.8897 14.057 10 16.2049 10 18.4446C10 20.6842 10.8897 22.8321 12.4734 24.4158C14.057 25.9994 16.2049 26.8891 18.4446 26.8891C20.6842 26.8891 22.8321 25.9994 24.4158 24.4158Z" stroke="#828282" stroke-linecap="round" stroke-linejoin="round"/>
</svg>
