<svg width="27" height="30" viewBox="0 0 27 30" fill="#000000" xmlns="http://www.w3.org/2000/svg">
<path d="M24.3644 17.1749C24.1011 16.7305 23.8957 16.2525 23.7534 15.7532L24.0635 15.7181C24.1929 16.1574 24.374 16.5787 24.6025 16.9726L24.3644 17.1749ZM2.55039 17.1749L2.3123 16.9726C2.54084 16.5787 2.72188 16.1574 2.85131 15.7181L3.16147 15.7532C3.01917 16.2525 2.81371 16.7305 2.55039 17.1749ZM3.4686 13.7752L3.16287 13.7406L3.46832 11.0441L3.77406 11.0787L3.4686 13.7752ZM4.04742 9.0969L3.74028 9.0621C4.64983 4.737 8.17812 1.49272 12.4574 1.05132V1.36076C8.33941 1.80003 4.93752 4.92263 4.04742 9.0969ZM14.4574 1.05132C18.7367 1.49272 22.2649 4.73699 23.1745 9.0621L22.8673 9.0969C21.9772 4.92264 18.5754 1.80003 14.4574 1.36076V1.05132ZM23.1407 11.0787L23.4465 11.0441L23.752 13.7406L23.4462 13.7752L23.1407 11.0787ZM1.45647 18.8699C0.964585 20.247 1.67139 21.7999 2.9653 22.3405V22.674C1.39859 22.1075 0.57686 20.2467 1.20878 18.6594L1.45647 18.8699ZM21.9496 22.8462H4.9653V22.5385H21.9496V22.8462ZM23.9496 22.674V22.3405C25.2435 21.7999 25.9501 20.2469 25.4583 18.8699L25.7061 18.6594C26.338 20.2467 25.5162 22.1074 23.9496 22.674Z" stroke="#000000" stroke-width="2"/>
<path d="M17.4682 26.6108L17.7638 26.7216C17.0423 27.833 15.8534 28.6418 14.458 28.9068V28.5933C15.724 28.3375 16.8 27.6061 17.4682 26.6108ZM12.458 28.5933V28.9068C11.0627 28.6418 9.87366 27.8329 9.15221 26.7216L9.44785 26.6108C10.116 27.6061 11.1921 28.3375 12.458 28.5933Z" stroke="#000000" stroke-width="2"/>
</svg>
