<svg width="31" height="31" viewBox="0 0 31 31" fill="none" xmlns="http://www.w3.org/2000/svg">
<path fill-rule="evenodd" clip-rule="evenodd" d="M17.2151 2H12.8C10.5268 2 8.94216 2.00156 7.70848 2.10235C6.49814 2.20124 5.80277 2.38559 5.27606 2.65396C4.14708 3.2292 3.2292 4.14708 2.65396 5.27606C2.38559 5.80277 2.20124 6.49814 2.10235 7.70848C2.00156 8.94216 2 10.5268 2 12.8V17.2151C2 19.4884 2.00156 21.073 2.10235 22.3067C2.20124 23.517 2.38559 24.2124 2.65396 24.7391C3.2292 25.8681 4.14708 26.7859 5.27606 27.3612C5.80277 27.6296 6.49814 27.8139 7.70848 27.9128C8.94216 28.0136 10.5268 28.0151 12.8 28.0151H17.2151C19.4884 28.0151 21.073 28.0136 22.3067 27.9128C23.517 27.8139 24.2124 27.6296 24.7391 27.3612C25.8681 26.7859 26.7859 25.8681 27.3612 24.7391C27.6296 24.2124 27.8139 23.517 27.9128 22.3067C28.0136 21.073 28.0151 19.4883 28.0151 17.2151V12.8C28.0151 10.5268 28.0136 8.94216 27.9128 7.70848C27.8139 6.49814 27.6296 5.80277 27.3612 5.27606C26.7859 4.14708 25.8681 3.2292 24.7391 2.65396C24.2124 2.38559 23.517 2.20124 22.3067 2.10235C21.073 2.00156 19.4883 2 17.2151 2ZM0.871948 4.36808C0 6.07937 0 8.31958 0 12.8V17.2151C0 21.6956 0 23.9358 0.871948 25.6471C1.63893 27.1524 2.86278 28.3762 4.36808 29.1432C6.07937 30.0151 8.31958 30.0151 12.8 30.0151H17.2151C21.6956 30.0151 23.9358 30.0151 25.6471 29.1432C27.1524 28.3762 28.3762 27.1524 29.1432 25.6471C30.0151 23.9358 30.0151 21.6956 30.0151 17.2151V12.8C30.0151 8.31958 30.0151 6.07937 29.1432 4.36808C28.3762 2.86278 27.1524 1.63893 25.6471 0.871948C23.9358 0 21.6956 0 17.2151 0H12.8C8.31958 0 6.07937 0 4.36808 0.871948C2.86278 1.63893 1.63893 2.86278 0.871948 4.36808ZM15 8C15.5523 8 16 8.44771 16 9V14H21C21.5523 14 22 14.4477 22 15C22 15.5523 21.5523 16 21 16H16V21C16 21.5523 15.5523 22 15 22C14.4477 22 14 21.5523 14 21V16H9C8.44771 16 8 15.5523 8 15C8 14.4477 8.44771 14 9 14H14V9C14 8.44771 14.4477 8 15 8Z" fill="#000000"/>
</svg>
