<svg width="27" height="27" viewBox="0 0 27 27" fill="none" xmlns="http://www.w3.org/2000/svg">
<g id="Clip path group">
<mask id="mask0_7911_45786" style="mask-type:luminance" maskUnits="userSpaceOnUse" x="0" y="0" width="27" height="27">
<g id="clip0_202_6563">
<path id="Vector" d="M0.5 0.5H26.5V26.5H0.5V0.5Z" fill="white"/>
</g>
</mask>
<g mask="url(#mask0_7911_45786)">
<g id="Group">
<path id="Vector_2" d="M9.70833 25.4167C11.2041 25.4167 12.4167 24.2041 12.4167 22.7083C12.4167 21.2126 11.2041 20 9.70833 20C8.21256 20 7 21.2126 7 22.7083C7 24.2041 8.21256 25.4167 9.70833 25.4167Z" fill="#212124"/>
<path id="Vector_3" d="M20.5423 25.4167C22.0381 25.4167 23.2507 24.2041 23.2507 22.7083C23.2507 21.2126 22.0381 20 20.5423 20C19.0466 20 17.834 21.2126 17.834 22.7083C17.834 24.2041 19.0466 25.4167 20.5423 25.4167Z" fill="#212124"/>
<path id="Vector_4" d="M26.3679 5.02032C26.2649 4.90223 26.1154 4.83398 25.9584 4.83398H5.38583L4.8225 2.01948C4.77158 1.76598 4.5495 1.58398 4.29166 1.58398H1.04166C0.742667 1.58398 0.5 1.82665 0.5 2.12565C0.5 2.42465 0.742667 2.66732 1.04166 2.66732H3.8475L6.48758 15.8699C6.84183 17.6347 8.40508 18.9173 10.2056 18.9173H23.7917C24.0907 18.9173 24.3334 18.6747 24.3334 18.3757C24.3334 18.0767 24.0907 17.834 23.7917 17.834H10.2056C8.91858 17.834 7.80275 16.9175 7.54925 15.6565L7.5395 15.6067L24.1145 13.5971C24.8436 13.5082 25.4243 12.9395 25.5283 12.2137L26.4946 5.45257C26.5174 5.29657 26.4708 5.13948 26.3679 5.02032Z" fill="#212124"/>
</g>
</g>
</g>
</svg>
