<svg width="23" height="29" viewBox="0 0 23 29" fill="none" xmlns="http://www.w3.org/2000/svg">
<g id="Icon">
<path id="Vector" fill-rule="evenodd" clip-rule="evenodd" d="M22.5 4.44347V20.2659C22.5 20.8492 22.2687 21.4086 21.8551 21.821L16.3061 27.37C15.8937 27.7836 15.3343 28.0149 14.751 28.0149H3.95714C3.04069 28.0149 2.16069 27.6503 1.512 27.0029C0.864571 26.3542 0.5 25.4742 0.5 24.5578V4.44347C0.5 3.52701 0.864571 2.64701 1.512 1.99833C2.16069 1.3509 3.04069 0.986328 3.95714 0.986328H19.0429C19.9593 0.986328 20.8393 1.3509 21.488 1.99833C22.1354 2.64701 22.5 3.52701 22.5 4.44347ZM14.6429 25.8149L20.3 20.1578H15.9C15.2061 20.1578 14.6429 20.721 14.6429 21.4149V25.8149ZM6.47143 7.90061H16.5286C17.049 7.90061 17.4714 7.47821 17.4714 6.95776C17.4714 6.4373 17.049 6.0149 16.5286 6.0149H6.47143C5.95097 6.0149 5.52857 6.4373 5.52857 6.95776C5.52857 7.47821 5.95097 7.90061 6.47143 7.90061ZM6.47143 22.9863H10.8714C11.3919 22.9863 11.8143 22.5639 11.8143 22.0435C11.8143 21.523 11.3919 21.1006 10.8714 21.1006H6.47143C5.95097 21.1006 5.52857 21.523 5.52857 22.0435C5.52857 22.5639 5.95097 22.9863 6.47143 22.9863ZM6.47143 17.9578H12.7571C13.2776 17.9578 13.7 17.5354 13.7 17.0149C13.7 16.4944 13.2776 16.072 12.7571 16.072H6.47143C5.95097 16.072 5.52857 16.4944 5.52857 17.0149C5.52857 17.5354 5.95097 17.9578 6.47143 17.9578ZM6.47143 12.9292H16.5286C17.049 12.9292 17.4714 12.5068 17.4714 11.9863C17.4714 11.4659 17.049 11.0435 16.5286 11.0435H6.47143C5.95097 11.0435 5.52857 11.4659 5.52857 11.9863C5.52857 12.5068 5.95097 12.9292 6.47143 12.9292Z" fill="#212124"/>
</g>
</svg>
