<svg width="25" height="23" viewBox="0 0 25 23" fill="none" xmlns="http://www.w3.org/2000/svg">
<path id="Vector" fill-rule="evenodd" clip-rule="evenodd" d="M11.3905 22.9996H11.1042C10.6769 22.9996 10.3303 22.6616 10.3303 22.2442C10.3303 19.9768 7.52132 18.8413 5.87868 20.4446C5.57649 20.7396 5.08629 20.7396 4.7841 20.4446L3.1178 18.8183C2.81556 18.5234 2.81556 18.0449 3.1178 17.75C4.75839 16.1488 3.5942 13.4052 1.2739 13.4052C0.846341 13.4052 0.5 13.0669 0.5 12.6498V10.35C0.5 9.93282 0.846341 9.59455 1.27395 9.59455C3.59419 9.59455 4.75844 6.85101 3.11785 5.24978C2.81561 4.95484 2.81561 4.4764 3.11785 4.18146L4.78415 2.55514C5.08634 2.26015 5.57654 2.26015 5.87873 2.55514C7.51932 4.15642 10.3303 3.02015 10.3303 0.755478C10.3303 0.338127 10.6769 9.52135e-05 11.1043 9.52135e-05H11.3906C11.3365 0.149067 11.307 0.309228 11.307 0.476054V6.77683C9.04834 7.2188 7.34683 9.16529 7.34683 11.4998C7.34683 13.8343 9.04834 15.7809 11.307 16.2228V22.5239C11.307 22.6906 11.3365 22.8507 11.3905 22.9996ZM20.2098 4.62433H24.458C24.4345 4.57462 24.4013 4.52897 24.3585 4.4875L19.871 0.135832C19.8284 0.0944586 19.7816 0.0625598 19.7308 0.0400401V4.15684C19.7308 4.41432 19.946 4.62433 20.2098 4.62433ZM12.7704 23C12.5017 23 12.2826 22.7861 12.2826 22.5239V0.476102C12.2826 0.213865 12.5017 0 12.7704 0H18.7553V4.15684C18.7553 4.93984 19.4076 5.57653 20.2098 5.57653H24.5V22.5325C24.5 22.7899 24.2848 23 24.021 23H12.7704ZM17.4712 4.52887H14.6983C14.4289 4.52887 14.2105 4.74202 14.2105 5.00497C14.2105 5.26792 14.4289 5.48107 14.6983 5.48107H17.4712C17.7406 5.48107 17.959 5.26792 17.959 5.00497C17.959 4.74202 17.7406 4.52887 17.4712 4.52887ZM20.9841 7.96699H14.6983C14.4289 7.96699 14.2105 8.18014 14.2105 8.44309C14.2105 8.70604 14.4289 8.9192 14.6983 8.9192H20.984C21.2535 8.9192 21.4719 8.70604 21.4719 8.44309C21.4719 8.18014 21.2535 7.96699 20.9841 7.96699ZM20.9841 11.4054H14.6983C14.4289 11.4054 14.2105 11.6185 14.2105 11.8815C14.2105 12.1445 14.4289 12.3576 14.6983 12.3576H20.984C21.2535 12.3576 21.4719 12.1445 21.4719 11.8815C21.4719 11.6185 21.2535 11.4054 20.9841 11.4054ZM20.9841 14.8435H14.6983C14.4289 14.8435 14.2105 15.0567 14.2105 15.3196C14.2105 15.5826 14.4289 15.7957 14.6983 15.7957H20.984C21.2535 15.7957 21.4719 15.5826 21.4719 15.3196C21.4719 15.0567 21.2535 14.8435 20.9841 14.8435ZM20.9841 18.2819H14.6983C14.4289 18.2819 14.2105 18.4951 14.2105 18.758C14.2105 19.021 14.4289 19.2341 14.6983 19.2341H20.984C21.2535 19.2341 21.4719 19.021 21.4719 18.758C21.4719 18.4951 21.2535 18.2819 20.9841 18.2819Z" fill="#212124"/>
</svg>
