<svg width="16" height="16" viewBox="0 0 16 16" fill="none" xmlns="http://www.w3.org/2000/svg">
<path d="M4.66667 7.33301V4.66634C4.66667 3.78229 5.01786 2.93444 5.64298 2.30932C6.2681 1.6842 7.11595 1.33301 8 1.33301C8.88406 1.33301 9.7319 1.6842 10.357 2.30932C10.9821 2.93444 11.3333 3.78229 11.3333 4.66634V7.33301M3.33333 7.33301H12.6667C13.403 7.33301 14 7.92996 14 8.66634V13.333C14 14.0694 13.403 14.6663 12.6667 14.6663H3.33333C2.59695 14.6663 2 14.0694 2 13.333V8.66634C2 7.92996 2.59695 7.33301 3.33333 7.33301Z" stroke="#828282" stroke-width="1.5" stroke-linecap="round" stroke-linejoin="round"/>
</svg>
