<svg width="70" height="58" viewBox="0 0 70 58" fill="none" xmlns="http://www.w3.org/2000/svg">
<path d="M1.87866 57.2125C2.23829 56.3316 2.58322 55.4448 2.97323 54.5778C3.03202 54.448 3.30346 54.3519 3.4769 54.3509C5.87671 54.336 8.2775 54.3331 10.6773 54.3489C11.0262 54.3509 11.2241 54.2548 11.4132 53.9446C20.2903 39.4067 29.1781 24.8756 38.0649 10.3436C40.113 6.99447 42.1629 3.64535 44.2119 0.296223C44.2796 0.185246 44.355 0.0792235 44.4863 -4.57764e-05C44.4128 0.151557 44.3452 0.307122 44.2649 0.455752C37.6387 12.8168 31.0125 25.1798 24.3765 37.5359C24.206 37.853 24.2011 38.0749 24.3863 38.3861C26.5588 42.0265 28.7156 45.6759 30.8753 49.3232C30.99 49.5165 31.0968 49.7156 31.2487 49.9861C30.0071 49.9861 28.839 49.9951 27.673 49.9713C27.5622 49.9693 27.428 49.782 27.3496 49.6522C26.7832 48.7089 26.2197 47.7626 25.6749 46.8055C25.5142 46.5221 25.3447 46.3834 24.9948 46.3883C23.3456 46.4101 21.6965 46.4091 20.0482 46.3893C19.717 46.3853 19.5593 46.5092 19.4113 46.7866C17.5573 50.2646 15.6935 53.7376 13.8326 57.2115C9.84831 57.2125 5.86397 57.2125 1.87866 57.2125ZM24.3344 44.5443C23.6778 43.4286 23.0527 42.3654 22.3942 41.2467C21.7984 42.3594 21.229 43.4217 20.6283 44.5443C21.8915 44.5443 23.0811 44.5443 24.3344 44.5443Z" fill="#828282"/>
<path d="M29.3184 33.5332C29.6917 32.8297 30.0719 32.2352 30.3306 31.5901C30.5795 30.9699 30.9519 30.8252 31.5888 30.8282C37.5977 30.8559 43.6065 30.844 49.6163 30.848C49.924 30.848 50.2405 30.85 50.5394 30.9173C51.5252 31.1383 52.1308 31.8616 52.1386 32.8822C52.1572 35.1939 52.1602 37.5056 52.1357 39.8173C52.1239 40.9291 51.5556 41.7445 50.6736 41.9823C50.3669 42.0656 50.0289 42.0418 49.7045 42.0487C49.2361 42.0586 48.7667 42.0507 48.1935 42.0507C50.1043 44.7409 51.9603 47.3548 53.8868 50.0658C53.3547 50.0658 52.9245 50.0658 52.4933 50.0658C51.6438 50.0658 50.7942 50.047 49.9465 50.0747C49.6212 50.0856 49.4536 49.9628 49.2861 49.7012C47.7417 47.2765 46.1788 44.8638 44.6383 42.4362C44.4571 42.1508 44.2748 42.0339 43.9387 42.0428C43.0421 42.0666 42.1445 42.0507 41.1861 42.0507C41.1861 44.7161 41.1861 47.3627 41.1861 50.041C38.3248 50.041 35.5242 50.041 32.6207 50.041C32.9793 49.5694 33.3605 49.181 33.6084 48.7192C34.1562 47.7006 34.9431 47.3231 36.0749 47.4876C36.6971 47.5778 37.3419 47.5034 38.0131 47.5034C38.0131 42.8444 38.0131 38.2161 38.0131 33.5322C35.1528 33.5332 32.2885 33.5332 29.3184 33.5332ZM41.1841 38.8096C41.2596 38.8393 41.288 38.8611 41.3174 38.8611C43.7339 38.8681 46.1494 38.8809 48.5658 38.872C49.1254 38.87 49.4772 38.5104 49.5007 37.9356C49.5379 37.0459 49.5487 36.1551 49.5507 35.2653C49.5526 34.2724 49.2047 33.9276 48.2268 33.9266C46.0386 33.9246 43.8515 33.9256 41.6633 33.9266C41.5065 33.9266 41.3507 33.9405 41.1832 33.9494C41.1841 35.5952 41.1841 37.1945 41.1841 38.8096Z" fill="#828282"/>
<path d="M69.9275 30.9563C69.4229 31.8273 68.9721 32.623 68.4959 33.4038C68.4302 33.5118 68.2343 33.595 68.098 33.595C65.3386 33.6029 62.5782 33.593 59.8187 33.5999C59.4993 33.6009 59.1671 33.6386 58.8624 33.7307C58.4527 33.8536 58.2097 34.1657 58.2048 34.6126C58.1891 35.9166 58.1725 37.2206 58.1833 38.5236C58.1872 39.0259 58.4772 39.2865 59.0358 39.3658C59.2288 39.3935 59.4268 39.3816 59.6228 39.3816C62.3009 39.3826 64.979 39.3668 67.6571 39.3965C68.1304 39.4015 68.6262 39.5323 69.0662 39.7156C69.6189 39.9454 69.8874 40.425 69.8854 41.0542C69.8785 43.4818 69.8874 45.9095 69.8805 48.3361C69.8776 49.2784 69.4601 50.0939 68.1441 50.0751C64.1284 50.0176 60.1108 50.0642 56.0931 50.0701C55.902 50.0701 55.71 50.0701 55.4238 50.0701C55.8952 49.1952 56.3107 48.3837 56.7761 47.6019C56.8516 47.475 57.1475 47.4404 57.3425 47.4364C58.6321 47.4106 59.9226 47.4096 61.2122 47.3908C62.7624 47.368 64.3126 47.3363 65.8629 47.3046C66.5958 47.2897 67.0388 46.8379 67.0456 46.0888C67.0535 45.1643 67.0456 44.2399 67.0456 43.3144C67.0446 42.1392 66.6703 41.7558 65.4836 41.7676C63.6718 41.7855 61.8599 41.8241 60.049 41.8469C59.1838 41.8578 58.3175 41.8657 57.4523 41.8479C56.8251 41.835 56.2528 41.6121 55.8628 41.1087C55.6659 40.8551 55.5032 40.4944 55.4993 40.1793C55.4669 37.5703 55.4709 34.9614 55.4728 32.3524C55.4738 31.5043 55.9755 30.9633 56.7938 30.9613C61.1358 30.9514 65.4797 30.9563 69.9275 30.9563Z" fill="#828282"/>
<path d="M0 33.7499C0 32.7026 0 31.7186 0 30.6971C6.65754 30.6971 13.3121 30.6971 20.0138 30.6971C19.9667 30.8071 19.9324 30.922 19.8727 31.0231C19.4023 31.8138 18.9163 32.5956 18.4616 33.3942C18.3107 33.6588 18.1382 33.7489 17.8413 33.7479C15.6532 33.7361 13.464 33.742 11.2759 33.742C11.0975 33.742 10.9192 33.742 10.6762 33.742C10.6762 39.1244 10.6762 44.48 10.6762 49.8812C9.52967 49.8812 8.44686 49.8812 7.30526 49.8812C7.30526 44.5276 7.30526 39.1709 7.30526 33.7519C4.84176 33.7499 2.43509 33.7499 0 33.7499Z" fill="#828282"/>
</svg>
