<svg width="14" height="21" viewBox="0 0 14 21" fill="none" xmlns="http://www.w3.org/2000/svg">
<path d="M7 9.975C6.33696 9.975 5.70107 9.69844 5.23223 9.20615C4.76339 8.71387 4.5 8.04619 4.5 7.35C4.5 6.65381 4.76339 5.98613 5.23223 5.49384C5.70107 5.00156 6.33696 4.725 7 4.725C7.66304 4.725 8.29893 5.00156 8.76777 5.49384C9.23661 5.98613 9.5 6.65381 9.5 7.35C9.5 7.69472 9.43534 8.03606 9.3097 8.35454C9.18406 8.67302 8.99991 8.9624 8.76777 9.20615C8.53562 9.44991 8.26002 9.64326 7.95671 9.77518C7.65339 9.9071 7.3283 9.975 7 9.975ZM7 0C5.14348 0 3.36301 0.774373 2.05025 2.15277C0.737498 3.53116 0 5.40066 0 7.35C0 12.8625 7 21 7 21C7 21 14 12.8625 14 7.35C14 5.40066 13.2625 3.53116 11.9497 2.15277C10.637 0.774373 8.85652 0 7 0Z" fill="white"/>
</svg>
