<svg width="29" height="29" viewBox="0 0 29 29" fill="none" xmlns="http://www.w3.org/2000/svg">
<g id="Group">
<path id="Vector" d="M27.0019 19.5928C25.3881 23.5536 18.483 26.0144 11.578 25.0888C6.82156 24.4515 3.10749 22.3217 1.99609 19.5934" stroke="black" stroke-width="0.627907" stroke-linecap="round" stroke-linejoin="round"/>
<path id="Vector_2" d="M28 14.5C28 18.776 21.9558 22.2433 14.5 22.2433C7.04423 22.2433 1 18.7767 1 14.5" stroke="black" stroke-width="0.627907" stroke-linecap="round" stroke-linejoin="round"/>
<path id="Vector_3" d="M27.0026 9.40785C28.6157 13.3681 24.3259 17.3289 17.4208 18.2544C10.5157 19.1793 3.61059 16.7192 1.99687 12.7584C1.54792 11.6564 1.54792 10.5098 1.99687 9.40723" stroke="black" stroke-width="0.627907" stroke-linecap="round" stroke-linejoin="round"/>
<path id="Vector_4" d="M23.9027 4.81348C26.9713 7.79164 25.2489 11.6332 20.0561 13.3932C14.8633 15.1538 8.16546 14.1655 5.09687 11.1874C3.07187 9.22138 3.07187 6.77945 5.09687 4.81348" stroke="black" stroke-width="0.627907" stroke-linecap="round" stroke-linejoin="round"/>
<path id="Vector_5" d="M16.6167 1.16699C20.84 1.8376 23.3164 4.34546 22.1466 6.76792C20.9768 9.19039 16.606 10.6107 12.3827 9.94011C8.15938 9.2695 5.68292 6.76164 6.85208 4.33918C7.59552 2.79767 9.69524 1.59334 12.3821 1.16699" stroke="black" stroke-width="0.627907" stroke-linecap="round" stroke-linejoin="round"/>
<path id="Vector_6" d="M28 14.5C28 21.9558 21.9558 28 14.5 28C7.04423 28 1 21.9558 1 14.5C1 7.04423 7.04423 1 14.5 1C21.9558 1 28 7.04423 28 14.5Z" stroke="black" stroke-width="0.627907" stroke-linecap="round" stroke-linejoin="round"/>
<path id="Vector_7" d="M18.6053 3.9828C18.6053 5.30454 16.7373 6.37575 14.4335 6.37575C12.1297 6.37575 10.2617 5.30454 10.2617 3.98343C10.2617 2.66231 12.1297 1.58984 14.4335 1.58984C16.7373 1.58984 18.6053 2.66105 18.6053 3.9828Z" stroke="black" stroke-width="0.627907" stroke-linecap="round" stroke-linejoin="round"/>
<path id="Vector_8" d="M14.724 1.59034C14.8107 1.21045 14.8948 1.00764 14.9733 1.01078M13.8908 27.9894C13.4651 27.9725 13.3621 21.9188 13.661 14.4693C13.7828 11.4315 13.9529 8.63106 14.1401 6.38001M16.7622 1.99722C17.667 1.65689 18.5316 1.61106 19.3033 1.90931M9.56074 27.0909C6.37599 25.8583 5.97413 19.2226 8.66471 12.2685C9.60658 9.83287 10.804 7.68103 12.0981 5.96622M18.1794 2.93406C20.7971 2.97424 23.1424 3.90355 24.7165 5.75461M4.14755 23.2456C0.591715 19.0637 2.31344 11.758 7.99348 6.92817C8.82891 6.2143 9.72831 5.5789 10.6803 5.03001M18.6045 4.15031C24.4961 5.95743 28.472 10.8903 27.8328 16.1339M1.03125 12.8663C1.57753 8.38303 5.34434 4.93143 10.2709 3.8125M17.8931 5.31948C19.198 6.24879 20.3816 7.33766 21.4163 8.56073C26.2461 14.2408 27.0348 21.5044 23.1775 24.7846M5.68655 4.21562C7.10688 3.00815 8.9592 2.50834 10.9742 2.64334M16.2618 6.13324C17.3487 8.06971 18.3458 10.4947 19.1005 13.1941C21.1098 20.3742 20.6477 26.7795 18.0689 27.5009M10.7952 1.49929C11.3553 1.34231 11.9694 1.46727 12.6073 1.83145" stroke="black" stroke-width="0.627907" stroke-linecap="round" stroke-linejoin="round"/>
</g>
</svg>
