<svg id="Layer_1" data-name="Layer 1" xmlns="http://www.w3.org/2000/svg" xmlns:xlink="http://www.w3.org/1999/xlink" viewBox="0 0 22.82 22.82"><defs><style>.cls-1{fill:none;}.cls-2{clip-path:url(#clip-path);}.cls-3{fill:#212124;}</style><clipPath id="clip-path" transform="translate(-11.09 -11.09)"><rect class="cls-1" width="45" height="45"/></clipPath></defs><g class="cls-2"><g id="Frame_1973" data-name="Frame 1973"><path id="Vector" class="cls-3" d="M22.5,19.36a3.14,3.14,0,1,1-3.14,3.14A3.15,3.15,0,0,1,22.5,19.36Zm0-2.09a5.23,5.23,0,1,0,5.23,5.23A5.23,5.23,0,0,0,22.5,17.27ZM12.09,24h2a1,1,0,1,0,0-2h-2a1,1,0,0,0,0,2Zm18.82,0h2a1,1,0,0,0,0-2h-2a1,1,0,1,0,0,2ZM21,12.09v2a1,1,0,1,0,2,0v-2a1,1,0,0,0-2,0Zm0,18.82v2a1,1,0,0,0,2,0v-2a1,1,0,1,0-2,0ZM16.22,14.74a1.11,1.11,0,0,0-.34-.22,1,1,0,0,0-.8,0,1,1,0,0,0-.56.56,1,1,0,0,0,0,.8,1.11,1.11,0,0,0,.22.34l1.11,1.11a1,1,0,1,0,1.48-1.48ZM29.15,27.67a1.08,1.08,0,0,0-.74-.3,1.14,1.14,0,0,0-.4.08,1,1,0,0,0-.56.56,1.14,1.14,0,0,0-.08.4,1.08,1.08,0,0,0,.3.74l1.11,1.11a1,1,0,0,0,1.48,0,1.11,1.11,0,0,0,.22-.34,1,1,0,0,0,0-.8,1.11,1.11,0,0,0-.22-.34Zm1.11-11.45a1.11,1.11,0,0,0,.22-.34,1,1,0,0,0,0-.8,1,1,0,0,0-.56-.56,1,1,0,0,0-.8,0,1.11,1.11,0,0,0-.34.22l-1.11,1.11a1,1,0,1,0,1.48,1.48ZM17.33,29.15a1.08,1.08,0,0,0,.3-.74,1.14,1.14,0,0,0-.08-.4,1,1,0,0,0-.56-.56,1.14,1.14,0,0,0-.4-.08,1.08,1.08,0,0,0-.74.3l-1.11,1.11a1,1,0,1,0,1.48,1.48Z" transform="translate(-11.09 -11.09)"/></g></g></svg>