<svg width="25" height="24" viewBox="0 0 25 24" fill="none" xmlns="http://www.w3.org/2000/svg">
<g id="tabler:lock-filled">
<path id="Vector" d="M12.0156 2C13.3417 2 14.6135 2.52678 15.5512 3.46447C16.4888 4.40215 17.0156 5.67392 17.0156 7V10C17.8113 10 18.5743 10.3161 19.1369 10.8787C19.6996 11.4413 20.0156 12.2044 20.0156 13V19C20.0156 19.7956 19.6996 20.5587 19.1369 21.1213C18.5743 21.6839 17.8113 22 17.0156 22H7.01562C6.21998 22 5.45691 21.6839 4.8943 21.1213C4.3317 20.5587 4.01563 19.7956 4.01562 19V13C4.01562 12.2044 4.3317 11.4413 4.8943 10.8787C5.45691 10.3161 6.21998 10 7.01562 10V7C7.01562 5.67392 7.54241 4.40215 8.48009 3.46447C9.41777 2.52678 10.6895 2 12.0156 2ZM12.0156 14C11.511 13.9998 11.0251 14.1904 10.6551 14.5335C10.2851 14.8766 10.0585 15.3468 10.0206 15.85L10.0156 16C10.0156 16.3956 10.1329 16.7822 10.3527 17.1111C10.5724 17.44 10.8848 17.6964 11.2503 17.8478C11.6157 17.9991 12.0178 18.0387 12.4058 17.9616C12.7938 17.8844 13.1501 17.6939 13.4298 17.4142C13.7095 17.1345 13.9 16.7781 13.9772 16.3902C14.0544 16.0022 14.0148 15.6001 13.8634 15.2346C13.712 14.8692 13.4557 14.5568 13.1268 14.3371C12.7979 14.1173 12.4112 14 12.0156 14ZM12.0156 4C11.22 4 10.4569 4.31607 9.8943 4.87868C9.3317 5.44129 9.01562 6.20435 9.01562 7V10H15.0156V7C15.0156 6.20435 14.6996 5.44129 14.1369 4.87868C13.5743 4.31607 12.8113 4 12.0156 4Z" fill="#212124"/>
</g>
</svg>
