<?xml version="1.0" encoding="UTF-8"?>
<svg version="1.1" xmlns="http://www.w3.org/2000/svg" width="512" height="512">
<path d="M0 0 C0.94488785 -0.00705963 1.8897757 -0.01411926 2.86329651 -0.02139282 C41.91562467 -0.247035 41.91562467 -0.247035 58.76953125 3.203125 C59.7661377 3.39648438 60.76274414 3.58984375 61.78955078 3.7890625 C100.40821693 11.41976708 136.53468579 27.14110236 167.76953125 51.203125 C168.58164062 51.82316406 169.39375 52.44320312 170.23046875 53.08203125 C187.29561497 66.40576529 203.65598021 82.02237644 216.49560547 99.48486328 C217.79203791 101.23348182 219.12241843 102.95141303 220.4609375 104.66796875 C228.32520366 114.8826848 234.71064045 125.84037758 240.76953125 137.203125 C241.43299561 138.44376709 241.43299561 138.44376709 242.10986328 139.70947266 C253.62657967 161.61261762 261.29758965 185.90372389 265.76953125 210.203125 C265.9303418 211.00379395 266.09115234 211.80446289 266.25683594 212.62939453 C271.74897535 240.70724953 271.50349817 274.19290435 265.76953125 302.203125 C265.57617188 303.19973145 265.3828125 304.19633789 265.18359375 305.22314453 C257.06481252 346.31194555 239.6953801 383.40611994 213.76953125 416.203125 C212.95742188 417.24082031 212.1453125 418.27851563 211.30859375 419.34765625 C198.63941514 434.91435994 184.08154161 449.48099025 167.76953125 461.203125 C166.59964669 462.0668777 165.43038875 462.93147969 164.26171875 463.796875 C143.63570695 478.94020242 121.02655998 491.0223415 96.76953125 499.203125 C95.5470166 499.61618896 95.5470166 499.61618896 94.29980469 500.03759766 C84.52895448 503.27568006 74.64734388 505.80797973 64.58203125 507.953125 C63.65737061 508.15188232 62.73270996 508.35063965 61.7800293 508.55541992 C45.57341948 511.84811527 29.63916105 512.57842778 13.14453125 512.515625 C11.61717346 512.51239227 11.61717346 512.51239227 10.05895996 512.50909424 C-4.56294299 512.45939896 -18.86180807 512.15373742 -33.23046875 509.203125 C-34.24302734 509.00444824 -35.25558594 508.80577148 -36.29882812 508.60107422 C-77.39146924 500.38377705 -114.32683292 482.94295303 -147.23046875 457.203125 C-147.76961914 456.78401855 -148.30876953 456.36491211 -148.86425781 455.93310547 C-165.1043318 443.17008625 -180.17509218 427.97886011 -192.23046875 411.203125 C-193.09422145 410.03324044 -193.95882344 408.8639825 -194.82421875 407.6953125 C-209.96754617 387.0693007 -222.04968525 364.46015373 -230.23046875 340.203125 C-230.64353271 338.98061035 -230.64353271 338.98061035 -231.06494141 337.73339844 C-234.30302381 327.96254823 -236.83532348 318.08093763 -238.98046875 308.015625 C-239.17922607 307.09096436 -239.3779834 306.16630371 -239.58276367 305.21362305 C-242.87545902 289.00701323 -243.60577153 273.0727548 -243.54296875 256.578125 C-243.5408136 255.55988647 -243.53865845 254.54164795 -243.53643799 253.49255371 C-243.48673484 238.8683366 -243.17254863 224.57507862 -240.23046875 210.203125 C-239.94042969 208.70821533 -239.94042969 208.70821533 -239.64453125 207.18310547 C-230.21384757 159.45482289 -208.24432101 115.15908049 -174.23046875 80.203125 C-173.53791992 79.48479492 -172.84537109 78.76646484 -172.13183594 78.02636719 C-162.39274534 67.95866957 -152.64325716 58.35375276 -141.23046875 50.203125 C-140.61139648 49.75565918 -139.99232422 49.30819336 -139.35449219 48.84716797 C-99.20200514 19.97811463 -49.94969891 0.24934766 0 0 Z M-117.23046875 84.203125 C-118.23980469 84.98300781 -119.24914062 85.76289062 -120.2890625 86.56640625 C-127.23301727 92.11172048 -133.76220255 98.11643997 -140.23046875 104.203125 C-140.88917969 104.81929688 -141.54789063 105.43546875 -142.2265625 106.0703125 C-178.54147775 141.12720528 -201.59901758 195.27657821 -202.56640625 245.50390625 C-202.6070769 248.84140335 -202.61331175 252.17791443 -202.60546875 255.515625 C-202.60492493 256.3906366 -202.6043811 257.26564819 -202.6038208 258.16717529 C-202.4723899 304.36881588 -187.70220822 349.53168979 -159.23046875 386.203125 C-158.45058594 387.21246094 -157.67070312 388.22179687 -156.8671875 389.26171875 C-151.32187327 396.20567352 -145.31715378 402.7348588 -139.23046875 409.203125 C-138.61429688 409.86183594 -137.998125 410.52054687 -137.36328125 411.19921875 C-100.40034833 449.48857271 -44.51695771 470.7992088 8.0703125 472.19921875 C68.60851358 472.78821593 122.07718136 449.31794058 165.76953125 408.203125 C166.42824219 407.58695312 167.08695312 406.97078125 167.765625 406.3359375 C204.08054025 371.27904472 227.13808008 317.12967179 228.10546875 266.90234375 C228.1461394 263.56484665 228.15237425 260.22833557 228.14453125 256.890625 C228.14398743 256.0156134 228.1434436 255.14060181 228.1428833 254.23907471 C228.0114524 208.03743412 213.24127072 162.87456021 184.76953125 126.203125 C183.98964844 125.19378906 183.20976562 124.18445313 182.40625 123.14453125 C176.86093577 116.20057648 170.85621628 109.6713912 164.76953125 103.203125 C164.15335937 102.54441406 163.5371875 101.88570312 162.90234375 101.20703125 C125.78561145 62.7583588 69.74760745 41.41659748 17.01953125 40.234375 C-31.12807912 39.73873783 -79.0213262 54.53750799 -117.23046875 84.203125 Z " fill="#000000" transform="translate(243.23046875,-0.203125)"/>
<path d="M0 0 C1.25683594 0.32742187 2.51367188 0.65484375 3.80859375 0.9921875 C20.40531898 5.88723886 35.89933835 14.78688018 49 26 C49.87269531 26.7115625 50.74539063 27.423125 51.64453125 28.15625 C57.80308816 33.32983577 61.72303965 37.73676258 62.9375 45.9375 C63.33722382 52.36232915 61.55252945 57.22166833 57.6875 62.3125 C52.94109657 67.05890343 48.23677014 68.6621375 41.6484375 69.1171875 C33.58563259 68.76042622 28.58547388 64.91642248 23.30859375 59.21484375 C6.40036447 42.99324307 -16.75999539 37.32037755 -39.47314453 37.53173828 C-64.26796051 38.22420938 -85.25343605 49.2952118 -102.39453125 66.98046875 C-119.30396189 86.57715523 -125.38457091 110.55664852 -124 136 C-121.6745649 159.21793476 -109.40592587 179.86651445 -92 195 C-70.59231829 211.00329148 -47.04201668 216.64438864 -20.48291016 213.72314453 C-2.10597508 210.94353946 13.73990421 201.53756383 27.25 189.125 C32.43810309 184.53470303 37.09679139 182.65151265 44.0625 183.0625 C50.38387657 183.97386411 54.25166807 186.25166807 58.8125 190.8125 C62.72397418 196.51207667 63.57669351 201.71904566 62.640625 208.46484375 C59.31313342 221.632783 43.88788558 231.11800944 32.8515625 237.8046875 C11.6143094 250.15141078 -10.39140203 256.40704245 -35 256.375 C-35.67675781 256.37478851 -36.35351562 256.37457703 -37.05078125 256.37435913 C-48.73362948 256.33809087 -59.73155709 255.18330897 -71 252 C-72.00256836 251.72712158 -72.00256836 251.72712158 -73.02539062 251.44873047 C-93.7110709 245.67921994 -111.11764943 234.14856297 -127 220 C-127.66773438 219.40574219 -128.33546875 218.81148437 -129.0234375 218.19921875 C-151.78330494 196.66817044 -165.17029488 163.71248016 -166.28515625 132.7109375 C-167.06364694 95.08112707 -155.11726871 61.41016747 -128.9453125 33.94921875 C-95.81461734 0.20581739 -45.44619182 -12.68612908 0 0 Z " fill="#000000" transform="translate(290,130)"/>
</svg>
