<svg width="11" height="11" viewBox="0 0 11 11" fill="none" xmlns="http://www.w3.org/2000/svg">
<path d="M4.38202 1.05961C4.47808 0.954083 4.59512 0.869779 4.72564 0.812093C4.85615 0.754406 4.99728 0.724609 5.13998 0.724609C5.28267 0.724609 5.4238 0.754406 5.55432 0.812093C5.68484 0.869779 5.80187 0.954083 5.89793 1.05961L6.42066 1.63358C6.52215 1.745 6.64697 1.83267 6.78622 1.89033C6.92546 1.948 7.07572 1.97425 7.22627 1.9672L8.00165 1.93133C8.14413 1.92462 8.28645 1.94772 8.41949 1.99916C8.55253 2.05059 8.67338 2.12924 8.77429 2.23005C8.8752 2.33086 8.95396 2.45163 9.00552 2.58463C9.05709 2.71762 9.08032 2.85992 9.07375 3.00241L9.03736 3.7783C9.03032 3.92885 9.05656 4.0791 9.11423 4.21835C9.1719 4.3576 9.25956 4.48241 9.37098 4.58391L9.94495 5.10663C10.0505 5.20269 10.1348 5.31973 10.1925 5.45024C10.2502 5.58076 10.28 5.72189 10.28 5.86459C10.28 6.00728 10.2502 6.14841 10.1925 6.27893C10.1348 6.40945 10.0505 6.52648 9.94495 6.62254L9.37098 7.14526C9.25956 7.24676 9.1719 7.37158 9.11423 7.51082C9.05656 7.65007 9.03032 7.80032 9.03736 7.95088L9.07323 8.72625C9.07995 8.86874 9.05684 9.01105 9.00541 9.1441C8.95397 9.27714 8.87533 9.39798 8.77451 9.4989C8.6737 9.59981 8.55293 9.67857 8.41994 9.73013C8.28694 9.7817 8.14465 9.80493 8.00216 9.79836L7.22627 9.76197C7.07572 9.75493 6.92546 9.78117 6.78622 9.83884C6.64697 9.8965 6.52215 9.98417 6.42066 10.0956L5.89793 10.6696C5.80187 10.7751 5.68484 10.8594 5.55432 10.9171C5.4238 10.9748 5.28267 11.0046 5.13998 11.0046C4.99728 11.0046 4.85615 10.9748 4.72564 10.9171C4.59512 10.8594 4.47808 10.7751 4.38202 10.6696L3.8593 10.0956C3.75781 9.98417 3.63299 9.8965 3.49374 9.83884C3.35449 9.78117 3.20424 9.75493 3.05369 9.76197L2.27831 9.79784C2.13583 9.80455 1.99351 9.78145 1.86047 9.73002C1.72742 9.67858 1.60658 9.59994 1.50567 9.49912C1.40476 9.39831 1.326 9.27754 1.27443 9.14454C1.22287 9.01155 1.19963 8.86926 1.20621 8.72677L1.24259 7.95088C1.24964 7.80032 1.22339 7.65007 1.16573 7.51082C1.10806 7.37158 1.02039 7.24676 0.908973 7.14526L0.334999 6.62254C0.229474 6.52648 0.14517 6.40945 0.0874833 6.27893C0.029797 6.14841 0 6.00728 0 5.86459C0 5.72189 0.029797 5.58076 0.0874833 5.45024C0.14517 5.31973 0.229474 5.20269 0.334999 5.10663L0.908973 4.58391C1.02039 4.48241 1.10806 4.3576 1.16573 4.21835C1.22339 4.0791 1.24964 3.92885 1.24259 3.7783L1.20672 3.00292C1.20001 2.86044 1.22311 2.71812 1.27455 2.58507C1.32598 2.45203 1.40463 2.33119 1.50544 2.23028C1.60626 2.12937 1.72702 2.05061 1.86002 1.99904C1.99301 1.94748 2.13531 1.92424 2.2778 1.93082L3.05369 1.9672C3.20424 1.97425 3.35449 1.948 3.49374 1.89033C3.63299 1.83267 3.75781 1.745 3.8593 1.63358L4.38202 1.05961Z" fill="#5070E1"/>
<path d="M3.63184 5.86213L4.63967 6.76919L6.65535 4.95508" stroke="white" stroke-width="0.409154" stroke-linecap="round" stroke-linejoin="round"/>
</svg>
