<svg width="16" height="17" viewBox="0 0 16 17" fill="none" xmlns="http://www.w3.org/2000/svg">
<path d="M11.5099 12.7432H11.4071C11.2858 12.1502 11.0723 11.6048 10.7665 11.107C10.4608 10.6093 10.0891 10.1803 9.65158 9.82026C9.21402 9.46019 8.72112 9.17954 8.17286 8.97832C7.6246 8.7771 7.04998 8.67649 6.449 8.67649C5.98509 8.67649 5.53699 8.73738 5.10471 8.85917C4.67243 8.98096 4.26914 9.15041 3.89485 9.36752C3.52056 9.58462 3.18053 9.84939 2.87477 10.1618C2.56901 10.4742 2.30543 10.8184 2.08402 11.1944C1.8626 11.5703 1.69127 11.9754 1.57002 12.4096C1.44877 12.8439 1.38815 13.294 1.38815 13.7599H0.375977C0.375977 13.1245 0.468232 12.5129 0.652742 11.9251C0.837252 11.3374 1.10347 10.7946 1.45141 10.2968C1.79934 9.79908 2.21054 9.35693 2.68499 8.97037C3.15945 8.58382 3.69716 8.27934 4.29814 8.05694C3.70243 7.66509 3.23852 7.17263 2.9064 6.57956C2.57429 5.9865 2.40559 5.32988 2.40032 4.60973C2.40032 4.04843 2.50575 3.52155 2.71662 3.02909C2.92749 2.53663 3.2148 2.10507 3.57855 1.7344C3.9423 1.36373 4.37194 1.07249 4.86749 0.860684C5.36303 0.648874 5.8902 0.542969 6.449 0.542969C7.00781 0.542969 7.53234 0.648874 8.02261 0.860684C8.51288 1.07249 8.94253 1.36109 9.31155 1.72646C9.68057 2.09183 9.97051 2.5234 10.1814 3.02115C10.3923 3.5189 10.4977 4.04843 10.4977 4.60973C10.4977 4.95922 10.4555 5.30076 10.3712 5.63436C10.2868 5.96796 10.1603 6.28303 9.9916 6.57956C9.82291 6.8761 9.62522 7.1488 9.39853 7.39768C9.17185 7.64656 8.90563 7.86631 8.59987 8.05694C9.1903 8.28464 9.73329 8.59706 10.2288 8.9942C10.7244 9.39135 11.1514 9.85733 11.5099 10.3922V12.7432ZM3.41249 4.60973C3.41249 5.03335 3.49157 5.42785 3.64972 5.79322C3.80787 6.15859 4.02401 6.4816 4.29814 6.76225C4.57227 7.0429 4.89384 7.26265 5.26287 7.42151C5.63189 7.58037 6.02727 7.6598 6.449 7.6598C6.86547 7.6598 7.25821 7.58037 7.62723 7.42151C7.99625 7.26265 8.31783 7.04555 8.59196 6.77019C8.86609 6.49484 9.08486 6.17183 9.24829 5.80116C9.41171 5.43049 9.49079 5.03335 9.48552 4.60973C9.48552 4.1914 9.40644 3.79691 9.24829 3.42624C9.09014 3.05557 8.874 2.73256 8.59987 2.4572C8.32574 2.18185 8.00153 1.9621 7.62723 1.79795C7.25294 1.63379 6.8602 1.55436 6.449 1.55966C6.02727 1.55966 5.63452 1.63909 5.27077 1.79795C4.90702 1.9568 4.58545 2.17391 4.30605 2.44926C4.02665 2.72462 3.80787 3.05027 3.64972 3.42624C3.49157 3.8022 3.41249 4.1967 3.41249 4.60973ZM13.5342 13.7599H15.5585V14.7766H13.5342V16.81H12.522V14.7766H10.4977V13.7599H12.522V11.7266H13.5342V13.7599Z" fill="white"/>
</svg>
