<svg width="18" height="22" viewBox="0 0 18 22" fill="none" xmlns="http://www.w3.org/2000/svg">
<g id="Group">
<g id="Vector">
<mask id="path-1-inside-1_8003_24474" fill="white">
<path d="M15.3481 15.3727H2.6519V16.916H15.3481V15.3727ZM14.7361 7.7882L15.091 10.9206L16.6246 10.7469L16.2697 7.61448L14.7361 7.7882ZM2.90897 10.9206L3.26381 7.7882L1.73028 7.61448L1.37545 10.7469L2.90897 10.9206ZM1.82562 13.434C2.42717 12.7259 2.80377 11.8493 2.90897 10.9206L1.37545 10.7469C1.3043 11.3749 1.04998 11.9633 0.649466 12.4346L1.82562 13.434ZM15.091 10.9206C15.1963 11.8493 15.5728 12.7259 16.1743 13.434L17.3506 12.4346C16.95 11.9633 16.6957 11.3749 16.6246 10.7469L15.091 10.9206ZM2.6519 15.3727C1.73948 15.3727 1.1591 14.2184 1.82562 13.434L0.649466 12.4346C-0.810547 14.1532 0.334986 16.916 2.6519 16.916V15.3727ZM15.3481 16.916C17.665 16.916 18.8105 14.1532 17.3506 12.4346L16.1743 13.434C16.8408 14.2184 16.2605 15.3727 15.3481 15.3727V16.916ZM16.2697 7.61448C15.8425 3.84373 12.7327 0.968262 8.99999 0.968262V2.51159C11.912 2.51159 14.3933 4.76175 14.7361 7.7882L16.2697 7.61448ZM3.26381 7.7882C3.60664 4.76175 6.088 2.51159 8.99999 2.51159V0.968262C5.26731 0.968262 2.15743 3.84373 1.73028 7.61448L3.26381 7.7882Z"/>
</mask>
<path d="M0.649466 12.4346L1.29694 11.6725L0.00195682 13.1967L0.649466 12.4346ZM16.6246 10.7469L16.7371 11.7406L16.512 9.75327L16.6246 10.7469ZM17.3506 12.4346L17.998 13.1967L16.7031 11.6725L17.3506 12.4346ZM1.73028 7.61448L1.84284 6.62083L1.61772 8.60812L1.73028 7.61448ZM1.88501 12.1721L1.29694 11.6725L0.00199198 13.1967L0.590063 13.6963L1.88501 12.1721ZM2.02967 11.8274L2.79643 11.9142L3.0215 9.92694L2.25474 9.84011L2.02967 11.8274ZM15.9703 11.8274L16.7371 11.7406L16.512 9.75327L15.7452 9.84011L15.9703 11.8274ZM17.4099 13.6963L17.998 13.1967L16.7031 11.6725L16.115 12.1721L17.4099 13.6963ZM15.3904 6.70769L14.6236 6.79456L14.8487 8.78185L15.6155 8.69498L15.3904 6.70769ZM2.60961 6.70769L1.84284 6.62083L1.61772 8.60812L2.38449 8.69498L2.60961 6.70769ZM1.6519 15.3727V16.916H3.6519V15.3727H1.6519ZM16.3481 16.916V15.3727H14.3481V16.916H16.3481ZM15.2035 11.9142L16.7371 11.7406L16.512 9.75327L14.9785 9.92694L15.2035 11.9142ZM16.1571 6.62083L14.6236 6.79456L14.8487 8.78185L16.3823 8.60812L16.1571 6.62083ZM3.37637 6.79456L1.84285 6.62083L1.61772 8.60812L3.15124 8.78185L3.37637 6.79456ZM1.26291 11.7406L2.79643 11.9142L3.0215 9.92694L1.48798 9.75327L1.26291 11.7406ZM0.00195682 13.1967L1.17811 14.196L2.47313 12.6719L1.29697 11.6725L0.00195682 13.1967ZM16.8218 14.196L17.998 13.1967L16.7031 11.6725L15.5268 12.6719L16.8218 14.196ZM7.99999 0.968262V2.51159H9.99999V0.968262H7.99999ZM0.649466 12.4346L-0.874602 11.1395L-0.874744 11.1397L0.649466 12.4346ZM2.90897 10.9206L0.921676 10.6955L0.921674 10.6955L2.90897 10.9206ZM16.6246 10.7469L18.6119 10.5219L18.6119 10.5218L16.6246 10.7469ZM17.3506 12.4346L18.8748 11.1397L18.8746 11.1395L17.3506 12.4346ZM14.7361 7.7882L12.7489 8.01332L12.7489 8.01334L14.7361 7.7882ZM1.73028 7.61448L-0.257008 7.38936L-0.257009 7.38936L1.73028 7.61448ZM15.091 10.9206L13.1037 11.1457L13.1037 11.1458L15.091 10.9206ZM16.2697 7.61448L18.257 7.38934L18.257 7.38933L16.2697 7.61448ZM3.26381 7.7882L5.2511 8.01333L5.2511 8.01332L3.26381 7.7882ZM1.37545 10.7469L3.36274 10.972L3.36274 10.972L1.37545 10.7469ZM1.82562 13.434L3.34973 14.729L3.34984 14.7289L1.82562 13.434ZM16.1743 13.434L14.65 14.7288L14.6502 14.729L16.1743 13.434ZM15.3481 13.3727H2.6519V17.3727H15.3481V13.3727ZM2.6519 18.916H15.3481V14.916H2.6519V18.916ZM12.7489 8.01334L13.1037 11.1457L17.0783 10.6955L16.7234 7.56307L12.7489 8.01334ZM18.6119 10.5218L18.257 7.38934L14.2824 7.83961L14.6373 10.972L18.6119 10.5218ZM4.89626 11.1457L5.2511 8.01333L1.27652 7.56308L0.921676 10.6955L4.89626 11.1457ZM-0.257009 7.38936L-0.611841 10.5218L3.36274 10.972L3.71757 7.83959L-0.257009 7.38936ZM3.34984 14.7289C4.21188 13.7142 4.74694 12.4639 4.89626 11.1457L0.921674 10.6955C0.860603 11.2346 0.642457 11.7376 0.301401 12.1391L3.34984 14.7289ZM-0.611839 10.5218C-0.638859 10.7603 -0.734707 10.9749 -0.874602 11.1395L2.17353 13.7297C2.83467 12.9516 3.24746 11.9896 3.36274 10.972L-0.611839 10.5218ZM13.1037 11.1458C13.2531 12.4639 13.7881 13.7141 14.65 14.7288L17.6986 12.1391C17.3576 11.7377 17.1394 11.2347 17.0783 10.6954L13.1037 11.1458ZM18.8746 11.1395C18.7347 10.9748 18.6389 10.7603 18.6119 10.5219L14.6373 10.9719C14.7525 11.9896 15.1654 12.9517 15.8265 13.7297L18.8746 11.1395ZM2.6519 13.3727C3.09734 13.3727 3.37006 13.6559 3.46723 13.8695C3.57944 14.1163 3.56745 14.4727 3.34973 14.729L0.301503 12.1389C-1.44234 14.1913 -0.00589339 17.3727 2.6519 17.3727V13.3727ZM-0.874744 11.1397C-3.34185 14.0437 -1.5171 18.916 2.6519 18.916V14.916C2.37718 14.916 2.18106 14.7814 2.06864 14.5227C1.94778 14.2446 1.98628 13.9501 2.17368 13.7295L-0.874744 11.1397ZM15.3481 18.916C19.5171 18.916 21.3418 14.0437 18.8748 11.1397L15.8263 13.7295C16.0137 13.9501 16.0522 14.2445 15.9314 14.5227C15.8189 14.7814 15.6228 14.916 15.3481 14.916V18.916ZM14.6502 14.729C14.4325 14.4728 14.4205 14.1164 14.5327 13.8696C14.6299 13.6559 14.9027 13.3727 15.3481 13.3727V17.3727C18.0062 17.3727 19.4421 14.1911 17.6984 12.1389L14.6502 14.729ZM18.257 7.38933C17.7207 2.65529 13.7974 -1.03174 8.99999 -1.03174V2.96826C11.668 2.96826 13.9644 5.03216 14.2824 7.83962L18.257 7.38933ZM8.99999 4.51159C10.8499 4.51159 12.5155 5.95296 12.7489 8.01332L16.7234 7.56309C16.2712 3.57055 12.974 0.511594 8.99999 0.511594V4.51159ZM5.2511 8.01332C5.4845 5.95296 7.15003 4.51159 8.99999 4.51159V0.511594C5.02598 0.511594 1.72879 3.57054 1.27652 7.56309L5.2511 8.01332ZM8.99999 -1.03174C4.20259 -1.03174 0.279272 2.65528 -0.257008 7.38936L3.71757 7.8396C4.0356 5.03218 6.33203 2.96826 8.99999 2.96826V-1.03174Z" fill="#212124" mask="url(#path-1-inside-1_8003_24474)"/>
</g>
<g id="Vector_2">
<mask id="path-3-inside-2_8003_24474" fill="white">
<path d="M12.8084 18.4731C12.958 18.074 12.7557 17.6293 12.3566 17.4797C11.9575 17.3301 11.5128 17.5324 11.3632 17.9315L12.8084 18.4731ZM6.63509 17.9315C6.48553 17.5324 6.04077 17.3301 5.6417 17.4797C5.24262 17.6293 5.04035 18.074 5.18991 18.4731L6.63509 17.9315ZM11.3632 17.9315C11.0312 18.8175 10.1151 19.4884 8.99916 19.4884V21.0318C10.7334 21.0318 12.2418 19.9849 12.8084 18.4731L11.3632 17.9315ZM8.99916 19.4884C7.88323 19.4884 6.96711 18.8175 6.63509 17.9315L5.18991 18.4731C5.75647 19.9849 7.26497 21.0318 8.99916 21.0318V19.4884Z"/>
</mask>
<path d="M11.0123 18.8679L12.4575 19.4095L13.1593 17.5367L11.7142 16.9951L11.0123 18.8679ZM5.54085 19.4095L6.98602 18.8679L6.28415 16.9951L4.83898 17.5367L5.54085 19.4095ZM7.99916 19.4884V21.0318H9.99916V19.4884H7.99916ZM12.8084 18.4731L10.9357 17.7711L10.9356 17.7712L12.8084 18.4731ZM11.3632 17.9315L9.49048 17.2295L9.49043 17.2297L11.3632 17.9315ZM6.63509 17.9315L4.76227 18.6333L4.76228 18.6334L6.63509 17.9315ZM5.18991 18.4731L3.31709 19.1749L3.31711 19.175L5.18991 18.4731ZM14.6812 19.1751C15.2186 17.7414 14.4917 16.1442 13.0586 15.607L11.6546 19.3525C11.0198 19.1145 10.6975 18.4066 10.9357 17.7711L14.6812 19.1751ZM13.0586 15.607C11.6249 15.0696 10.0277 15.7964 9.49048 17.2295L13.236 18.6335C12.998 19.2684 12.2901 19.5907 11.6546 19.3525L13.0586 15.607ZM8.50791 17.2297C7.97076 15.7963 6.37322 15.0696 4.93967 15.607L6.34373 19.3525C5.70832 19.5907 5.0003 19.2685 4.76227 18.6333L8.50791 17.2297ZM4.93967 15.607C3.50656 16.1442 2.7799 17.7414 3.31709 19.1749L7.06273 17.7713C7.3008 18.4066 6.97869 19.1144 6.34373 19.3525L4.93967 15.607ZM9.49043 17.2297C9.46177 17.3061 9.31229 17.4884 8.99916 17.4884V21.4884C10.9179 21.4884 12.6007 20.3288 13.236 18.6334L9.49043 17.2297ZM8.99916 23.0318C11.5336 23.0318 13.8103 21.4985 14.6812 19.175L10.9356 17.7712C10.6733 18.4712 9.93312 19.0318 8.99916 19.0318V23.0318ZM8.99916 17.4884C8.68603 17.4884 8.53656 17.3061 8.5079 17.2297L4.76228 18.6334C5.39766 20.3288 7.08043 21.4884 8.99916 21.4884V17.4884ZM3.31711 19.175C4.18792 21.4986 6.46478 23.0318 8.99916 23.0318V19.0318C8.06516 19.0318 7.32501 18.4711 7.06271 17.7712L3.31711 19.175Z" fill="#212124" mask="url(#path-3-inside-2_8003_24474)"/>
</g>
</g>
</svg>
