<svg width="21" height="18" viewBox="0 0 21 18" fill="none" xmlns="http://www.w3.org/2000/svg">
<path id="Vector" d="M17.42 9.53L17.23 8.21L17.42 9.53ZM17.42 9.53C17.73 9.65 18 9.82 18.27 10L17.42 9.53ZM12.27 12.5C12.2302 12.8321 12.2302 13.1679 12.27 13.5V12.5ZM12.27 12.5L11.21 11.68L12.27 12.5ZM15.2923 9.63685L15.42 8.75H16.55L16.6777 9.63685L16.7402 10.0711L17.1493 10.2294C17.3773 10.3177 17.5894 10.4476 17.854 10.624L18.1845 10.8444L18.5524 10.6948L19.3757 10.3601L19.9519 11.3569L19.2411 11.9068L18.8827 12.1841L18.9614 12.6303C18.9819 12.7465 18.99 12.8611 18.99 13C18.99 13.1161 18.9768 13.2283 18.9558 13.4064L18.9551 13.4124L18.9053 13.8359L19.2438 14.0953L19.9609 14.6449L19.3838 15.6432L18.5524 15.3052L18.1845 15.1556L17.854 15.376C17.6049 15.542 17.3759 15.676 17.1318 15.7818L16.7473 15.9484L16.6877 16.3631L16.56 17.25H15.42L15.2923 16.3631L15.2298 15.9289L14.8207 15.7706C14.589 15.6809 14.3641 15.5476 14.1269 15.3834L13.7945 15.1532L13.4195 15.3044L12.593 15.6377L12.0181 14.6431L12.7289 14.0932L13.0653 13.833L13.0147 13.4107C12.982 13.1379 12.982 12.8621 13.0147 12.5893L13.0653 12.167L12.7289 11.9068L12.0181 11.3569L12.593 10.3623L13.4195 10.6956L13.7945 10.8468L14.1269 10.6166C14.3445 10.466 14.5911 10.3296 14.8482 10.2182L15.2327 10.0516L15.2923 9.63685ZM19.7 13.5L19.7032 13.4732C19.7221 13.3131 19.74 13.161 19.74 13C19.74 12.83 19.73 12.67 19.7 12.5V13.5ZM17.43 16.47C17.73 16.34 18 16.18 18.27 16L17.43 16.47ZM13.7 16C13.96 16.18 14.24 16.35 14.55 16.47L13.7 16ZM8.25 12.9985L8.25 13.001C8.25105 13.7653 8.36511 14.523 8.58671 15.25H0.75V14C0.75 13.3319 1.3104 12.5258 2.67791 11.8421C4.00075 11.1806 5.88109 10.75 8 10.75C8.1966 10.75 8.39161 10.7539 8.58455 10.7616C8.3648 11.4851 8.25154 12.2386 8.25 12.9985ZM5.7019 1.7019C6.3114 1.09241 7.13805 0.75 8 0.75C8.86195 0.75 9.6886 1.09241 10.2981 1.7019C10.9076 2.3114 11.25 3.13805 11.25 4C11.25 4.86195 10.9076 5.6886 10.2981 6.2981C9.6886 6.90759 8.86195 7.25 8 7.25C7.13805 7.25 6.3114 6.90759 5.7019 6.2981C5.09241 5.6886 4.75 4.86195 4.75 4C4.75 3.13805 5.09241 2.3114 5.7019 1.7019ZM18.25 13C18.25 11.7558 17.2442 10.75 16 10.75C14.7558 10.75 13.75 11.7558 13.75 13C13.75 14.2409 14.7425 15.25 16 15.25C17.2442 15.25 18.25 14.2442 18.25 13Z" stroke="black" stroke-width="1.5"/>
</svg>
