<svg width="20" height="20" viewBox="0 0 20 20" fill="none" xmlns="http://www.w3.org/2000/svg">
<path id="Vector" d="M12.597 0C11.4274 0.00104835 10.2747 0.27859 9.23291 0.809963C8.19112 1.34134 7.28981 2.11148 6.60258 3.0575C5.91535 4.00353 5.46167 5.09862 5.27859 6.25336C5.09552 7.40811 5.18823 8.58976 5.54917 9.70185L0.216743 15.0315C0.147952 15.1003 0.0934045 15.182 0.0562152 15.272C0.0190258 15.3619 -7.63125e-05 15.4583 2.29116e-07 15.5556V19.2593C2.29116e-07 19.4557 0.0780696 19.6441 0.217034 19.783C0.355999 19.922 0.544475 20 0.741 20H4.446C4.64253 20 4.831 19.922 4.96997 19.783C5.10893 19.6441 5.187 19.4557 5.187 19.2593V17.7778H6.669C6.86553 17.7778 7.054 17.6997 7.19297 17.5608C7.33193 17.4219 7.41 17.2335 7.41 17.037V15.5556H8.892C8.98934 15.5556 9.08574 15.5365 9.17569 15.4994C9.26565 15.4622 9.34739 15.4077 9.41626 15.3389L10.3018 14.4528C11.3202 14.7833 12.3982 14.8893 13.4615 14.7634C14.5249 14.6375 15.5483 14.2827 16.4613 13.7235C17.3743 13.1643 18.1552 12.4139 18.7503 11.5241C19.3454 10.6342 19.7405 9.62597 19.9083 8.56882C20.0762 7.51167 20.0129 6.4307 19.7228 5.40035C19.4327 4.37 18.9226 3.41474 18.2277 2.60036C17.5329 1.78597 16.6697 1.1318 15.6976 0.682898C14.7256 0.233992 13.6678 0.00101177 12.597 0ZM12.597 13.3333C11.8469 13.3346 11.1034 13.1929 10.4064 12.9157C10.2701 12.8566 10.1191 12.8398 9.97307 12.8675C9.82705 12.8953 9.69275 12.9663 9.58762 13.0713L8.58541 14.0741H6.669C6.47248 14.0741 6.284 14.1521 6.14503 14.291C6.00607 14.4299 5.928 14.6184 5.928 14.8148V16.2963H4.446C4.24948 16.2963 4.061 16.3743 3.92203 16.5133C3.78307 16.6522 3.705 16.8406 3.705 17.037V18.5185H1.482V15.862L6.93113 10.4157C7.0362 10.3106 7.10722 10.1764 7.13497 10.0304C7.16272 9.88446 7.14591 9.73352 7.08674 9.59722C6.61814 8.4193 6.53975 7.12221 6.86307 5.89647C7.1864 4.67072 7.89441 3.58092 8.8831 2.78713C9.87179 1.99335 11.0891 1.53742 12.3561 1.4863C13.6232 1.43519 14.8732 1.79159 15.9227 2.50315C16.9722 3.21471 17.7657 4.24394 18.1868 5.43966C18.6079 6.63538 18.6343 7.93456 18.2622 9.1464C17.89 10.3582 17.139 11.4188 16.1193 12.1724C15.0996 12.9261 13.8651 13.3329 12.597 13.3333ZM15.561 5.55556C15.561 5.77531 15.4958 5.99013 15.3737 6.17286C15.2515 6.35558 15.078 6.49799 14.8749 6.58209C14.6718 6.66619 14.4483 6.68819 14.2327 6.64532C14.017 6.60244 13.819 6.49662 13.6636 6.34123C13.5081 6.18584 13.4022 5.98786 13.3594 5.77232C13.3165 5.55679 13.3385 5.33338 13.4226 5.13035C13.5067 4.92732 13.6492 4.75379 13.832 4.6317C14.0148 4.50961 14.2297 4.44444 14.4495 4.44444C14.7443 4.44444 15.027 4.56151 15.2355 4.76988C15.4439 4.97825 15.561 5.26087 15.561 5.55556Z" fill="black"/>
</svg>
