<svg width="70" height="56" viewBox="0 0 70 56" fill="none" xmlns="http://www.w3.org/2000/svg">
<g id="Group 2">
<g id="Group">
<path id="Vector" d="M1.85245 55.9253C2.20384 55.0628 2.54459 54.2002 2.93858 53.3484C2.99182 53.2206 3.26868 53.1248 3.43905 53.1248C5.81364 53.1141 8.18823 53.1035 10.5522 53.1248C10.8929 53.1248 11.0952 53.0289 11.2763 52.7308C20.0505 38.5152 28.8354 24.3102 37.6203 10.1053C39.6435 6.82561 41.6667 3.55656 43.7006 0.287507C43.7645 0.181023 43.839 0.0745386 43.9668 0C43.8922 0.149077 43.8284 0.298155 43.7432 0.447232C37.1944 12.5331 30.6457 24.619 24.0863 36.6943C23.9159 37.0031 23.9159 37.2267 24.0863 37.5249C26.2372 41.0814 28.3669 44.6486 30.4966 48.2159C30.6137 48.4075 30.7202 48.5992 30.8693 48.8654C29.6447 48.8654 28.484 48.8654 27.334 48.8548C27.2275 48.8548 27.0891 48.6737 27.0146 48.546C26.4502 47.6196 25.8965 46.7038 25.3641 45.7667C25.2043 45.4899 25.034 45.3514 24.6932 45.3621C23.064 45.3834 21.4348 45.3834 19.8056 45.3621C19.4755 45.3621 19.3264 45.4792 19.1774 45.7454C17.3458 49.1423 15.5037 52.5391 13.6615 55.9359H1.8418L1.85245 55.9253ZM24.0543 43.5412C23.4048 42.4551 22.7872 41.4115 22.1376 40.3148C21.5519 41.4009 20.9876 42.4444 20.3913 43.5412H24.0543Z" fill="black"/>
<path id="Vector_2" d="M28.9844 32.7758C29.3571 32.0837 29.7298 31.5086 29.9853 30.8804C30.2302 30.2734 30.6029 30.135 31.2312 30.135C37.173 30.167 43.1148 30.1457 49.0459 30.1563C49.3547 30.1563 49.6635 30.1563 49.9617 30.2202C50.9307 30.4332 51.5376 31.1466 51.5376 32.1369C51.5589 34.3944 51.5589 36.6518 51.5376 38.9199C51.527 40.0061 50.9626 40.8047 50.0895 41.0389C49.7807 41.1241 49.4506 41.0922 49.1311 41.1028C48.6626 41.1028 48.2047 41.1028 47.6403 41.1028C49.5251 43.733 51.3673 46.2886 53.2627 48.94C52.7409 48.94 52.315 48.94 51.889 48.94C51.0478 48.94 50.2066 48.9187 49.376 48.94C49.0566 48.94 48.8862 48.8336 48.7265 48.578C47.2037 46.2034 45.6597 43.8501 44.137 41.4755C43.956 41.1987 43.775 41.0815 43.4449 41.0922C42.5611 41.1135 41.6666 41.0922 40.7189 41.0922V48.9081H32.2534C32.6048 48.4502 32.9882 48.0669 33.2331 47.6196C33.7761 46.6187 34.5535 46.2567 35.6716 46.4164C36.2892 46.5016 36.9281 46.427 37.5883 46.427V32.7652H28.995L28.9844 32.7758ZM40.7082 37.9296C40.7828 37.9616 40.8147 37.9829 40.836 37.9829C43.2213 37.9829 45.6171 38.0042 48.0024 37.9935C48.5561 37.9935 48.9075 37.6421 48.9288 37.0777C48.9607 36.2046 48.9714 35.3421 48.982 34.4689C48.982 33.4999 48.6413 33.1591 47.6723 33.1591C45.5107 33.1591 43.349 33.1591 41.1874 33.1591C41.0277 33.1591 40.8786 33.1698 40.7082 33.1804V37.9296Z" fill="black"/>
<path id="Vector_3" d="M69.1188 30.252C68.6183 31.1038 68.1711 31.8812 67.7025 32.6479C67.6386 32.7543 67.447 32.8395 67.3085 32.8395C64.5826 32.8395 61.8566 32.8395 59.1199 32.8395C58.8005 32.8395 58.481 32.8821 58.1722 32.9673C57.7676 33.0845 57.5227 33.3933 57.5227 33.8298C57.512 35.1076 57.4907 36.3748 57.5014 37.6526C57.5014 38.1424 57.7889 38.398 58.3426 38.4725C58.5343 38.5045 58.7259 38.4832 58.9176 38.4832C61.5691 38.4832 64.2099 38.4725 66.8613 38.4938C67.3298 38.4938 67.8197 38.6323 68.2562 38.8026C68.7993 39.0262 69.0655 39.4948 69.0655 40.1124C69.0655 42.487 69.0655 44.8616 69.0655 47.2361C69.0655 48.1626 68.6502 48.9505 67.3511 48.9399C63.3793 48.8866 59.4074 48.9399 55.4356 48.9399C55.2439 48.9399 55.0522 48.9399 54.7754 48.9399C55.2439 48.088 55.6486 47.2894 56.1171 46.5227C56.1916 46.3949 56.4791 46.363 56.6815 46.363C57.9593 46.3417 59.2264 46.3417 60.5042 46.3204C62.0376 46.2991 63.571 46.2671 65.1043 46.2352C65.8284 46.2245 66.265 45.7773 66.2756 45.0426C66.2756 44.1375 66.2756 43.2324 66.2756 42.3272C66.2756 41.1772 65.9029 40.8045 64.7316 40.8152C62.9427 40.8365 61.1538 40.8684 59.3542 40.8897C58.5023 40.8897 57.6398 40.911 56.7879 40.8897C56.1703 40.8791 55.606 40.6554 55.212 40.1656C55.0203 39.9207 54.8606 39.5693 54.8499 39.2605C54.818 36.7155 54.818 34.1599 54.8286 31.6043C54.8286 30.7738 55.3291 30.2413 56.1384 30.2413C60.4297 30.2413 64.721 30.2413 69.1188 30.2413V30.252Z" fill="black"/>
<path id="Vector_4" d="M0 32.9888V30.0072H19.7847C19.7421 30.1137 19.6995 30.2308 19.6463 30.3267C19.1777 31.104 18.6986 31.86 18.2513 32.648C18.1022 32.9036 17.9319 32.9994 17.6337 32.9888C15.4721 32.9781 13.3105 32.9888 11.1489 32.9888C10.9678 32.9888 10.7975 32.9888 10.5525 32.9888V48.7696H7.2196V32.9994H0V32.9888Z" fill="black"/>
</g>
</g>
</svg>
