<svg width="10" height="10" viewBox="0 0 10 10" fill="none" xmlns="http://www.w3.org/2000/svg">
<path d="M5 0C4.01109 0 3.0444 0.293245 2.22215 0.842652C1.3999 1.39206 0.759043 2.17295 0.380605 3.08658C0.00216642 4.00021 -0.0968502 5.00555 0.0960758 5.97545C0.289002 6.94536 0.765206 7.83627 1.46447 8.53553C2.16373 9.23479 3.05465 9.711 4.02455 9.90392C4.99445 10.0969 5.99979 9.99783 6.91342 9.6194C7.82705 9.24096 8.60794 8.60009 9.15735 7.77785C9.70676 6.9556 10 5.98891 10 5C9.9986 3.67435 9.47137 2.40339 8.53399 1.46601C7.59661 0.528633 6.32565 0.00139991 5 0ZM5 9.23077C4.16323 9.23077 3.34526 8.98264 2.64951 8.51775C1.95377 8.05287 1.4115 7.39212 1.09128 6.61904C0.771064 5.84597 0.687281 4.99531 0.850526 4.17462C1.01377 3.35393 1.41671 2.60008 2.0084 2.00839C2.60008 1.41671 3.35393 1.01377 4.17462 0.850524C4.99531 0.687279 5.84597 0.771062 6.61905 1.09128C7.39212 1.4115 8.05287 1.95376 8.51776 2.64951C8.98264 3.34526 9.23077 4.16323 9.23077 5C9.2295 6.12168 8.78335 7.19705 7.9902 7.9902C7.19705 8.78335 6.12168 9.2295 5 9.23077ZM3.46154 5C3.46154 5.3229 3.56314 5.63761 3.75194 5.89955C3.94074 6.1615 4.20717 6.3574 4.5135 6.45951C4.81982 6.56162 5.15051 6.56476 5.45872 6.46848C5.76693 6.3722 6.03703 6.18139 6.23077 5.92308C6.29204 5.84147 6.38321 5.78755 6.48424 5.77317C6.58527 5.75878 6.68787 5.78513 6.76947 5.84639C6.85108 5.90766 6.905 5.99884 6.91938 6.09986C6.93376 6.20089 6.90742 6.30349 6.84615 6.38509C6.55548 6.77245 6.1503 7.05855 5.68801 7.20286C5.22572 7.34717 4.72974 7.34238 4.27032 7.18917C3.8109 7.03597 3.41132 6.74211 3.12818 6.34921C2.84503 5.95631 2.69267 5.48429 2.69267 5C2.69267 4.51571 2.84503 4.04369 3.12818 3.65079C3.41132 3.25789 3.8109 2.96403 4.27032 2.81083C4.72974 2.65762 5.22572 2.65283 5.68801 2.79714C6.1503 2.94145 6.55548 3.22754 6.84615 3.6149C6.87649 3.65531 6.89857 3.7013 6.91114 3.75024C6.9237 3.79918 6.9265 3.85011 6.91938 3.90014C6.91226 3.95016 6.89536 3.99829 6.86964 4.04178C6.84391 4.08527 6.80988 4.12327 6.76947 4.1536C6.72906 4.18394 6.68308 4.20602 6.63414 4.21859C6.5852 4.23115 6.53426 4.23395 6.48424 4.22683C6.43422 4.21971 6.38609 4.20281 6.3426 4.17709C6.2991 4.15136 6.26111 4.11733 6.23077 4.07692C6.03703 3.81861 5.76693 3.62779 5.45872 3.53152C5.15051 3.43524 4.81982 3.43838 4.5135 3.54049C4.20717 3.6426 3.94074 3.8385 3.75194 4.10044C3.56314 4.36239 3.46154 4.6771 3.46154 5Z" fill="#828282"/>
</svg>
