<svg width="27" height="28" viewBox="0 0 27 28" fill="none" xmlns="http://www.w3.org/2000/svg">
<path d="M13.5051 0.915039C6.17686 0.915039 0.236328 6.85557 0.236328 14.1838C0.236328 21.512 6.17686 27.4525 13.5051 27.4525C20.8333 27.4525 26.7738 21.512 26.7738 14.1838C26.7738 6.85557 20.8333 0.915039 13.5051 0.915039ZM14.7175 21.826H12.2452V19.457H14.7175V21.826ZM14.7175 16.9263V17.7096H12.2452V16.7455C12.2452 13.8332 15.5592 13.3713 15.5592 11.3016C15.5592 10.3585 14.7166 9.63549 13.6119 9.63549C12.4671 9.63549 11.4628 10.4791 11.4628 10.4791L10.0569 8.72985C10.0569 8.72985 11.4418 7.28192 13.8319 7.28192C16.1015 7.28192 18.2095 8.68785 18.2095 11.0579C18.2095 14.3737 14.7156 14.7553 14.7156 16.9254L14.7175 16.9263Z" fill="#0070C9"/>
</svg>
