<svg width="40" height="40" viewBox="0 0 40 40" fill="none" xmlns="http://www.w3.org/2000/svg">
<rect width="40" height="40" rx="12" fill="#F6F7F9" fill-opacity="0.8"/>
<path fill-rule="evenodd" clip-rule="evenodd" d="M12.9677 27.4194H26.5161C26.7728 27.4194 27.0189 27.5213 27.2004 27.7028C27.3819 27.8843 27.4839 28.1304 27.4839 28.3871C27.4839 28.6438 27.3819 28.8899 27.2004 29.0714C27.0189 29.2529 26.7728 29.3548 26.5161 29.3548H12.9677C12.7111 29.3548 12.4649 29.2529 12.2834 29.0714C12.102 28.8899 12 28.6438 12 28.3871C12 28.1304 12.102 27.8843 12.2834 27.7028C12.4649 27.5213 12.7111 27.4194 12.9677 27.4194ZM12 22.5806L21.6774 12.9032L24.5806 15.8065L14.9032 25.4839H12V22.5806ZM22.6452 11.9355L24.5806 10L27.4839 12.9032L25.5474 14.8397L22.6452 11.9355Z" fill="#828282"/>
</svg>
