<svg width="25" height="25" viewBox="0 0 25 25" fill="none" xmlns="http://www.w3.org/2000/svg">
<path id="Vector" d="M12.5 9.37092L17.0435 7.49778L5.7935 2.85363L1.9145 4.45431C1.71878 4.53472 1.53499 4.64311 1.3685 4.77631L12.5 9.37092ZM0.5525 6.10918C0.517511 6.2734 0.499907 6.44105 0.5 6.6092V18.4456C0.499925 18.9098 0.634649 19.3633 0.886783 19.7477C1.13892 20.1321 1.49689 20.4296 1.9145 20.602L10.55 24.1672C10.94 24.3282 11.342 24.4381 11.75 24.4985V10.7301L0.5525 6.10918ZM13.25 24.5C13.6613 24.439 14.0641 24.3278 14.45 24.1687L23.0855 20.6036C23.5033 20.4311 23.8615 20.1333 24.1136 19.7486C24.3658 19.3639 24.5004 18.91 24.5 18.4456V6.6092C24.5 6.43891 24.482 6.27017 24.4475 6.10763L13.25 10.7301V24.5ZM23.6315 4.77785L19.0625 6.66493L7.8125 2.02078L10.55 0.887608C11.8018 0.370797 13.1982 0.370797 14.45 0.887608L23.0855 4.45276C23.2812 4.53319 23.465 4.64158 23.6315 4.77476" fill="#212124"/>
</svg>
