<svg width="42" height="41" viewBox="0 0 42 41" fill="none" xmlns="http://www.w3.org/2000/svg">
<path fill-rule="evenodd" clip-rule="evenodd" d="M22.2245 0.600218C21.8401 0.215899 21.3188 0 20.7752 0C20.2316 0 19.7103 0.215899 19.3258 0.600218L4.97584 14.9504L0.875841 19.0504C0.680045 19.2395 0.523872 19.4657 0.416433 19.7158C0.308995 19.966 0.252443 20.235 0.250077 20.5072C0.247712 20.7794 0.299581 21.0493 0.402656 21.3012C0.505732 21.5532 0.657951 21.7821 0.850431 21.9746C1.04291 22.167 1.2718 22.3193 1.52373 22.4223C1.77567 22.5254 2.04562 22.5773 2.31781 22.5749C2.59001 22.5726 2.85901 22.516 3.10912 22.4086C3.35923 22.3011 3.58543 22.1449 3.77454 21.9491L4.37519 21.3485V34.8499C4.37519 36.481 5.02314 38.0453 6.17648 39.1987C7.32983 40.3521 8.89411 41 10.5252 41H31.0252C32.6563 41 34.2206 40.3521 35.3739 39.1987C36.5272 38.0453 37.1752 36.481 37.1752 34.8499V21.3485L37.7758 21.9491C38.1625 22.3226 38.6803 22.5292 39.2178 22.5245C39.7553 22.5199 40.2695 22.3043 40.6496 21.9242C41.0297 21.5441 41.2453 21.0299 41.2499 20.4924C41.2546 19.9549 41.048 19.4371 40.6745 19.0504L22.2245 0.600218Z" fill="black"/>
</svg>
