<svg width="16" height="16" viewBox="0 0 16 16" fill="none" xmlns="http://www.w3.org/2000/svg">
<g clip-path="url(#clip0_5680_35109)">
<path d="M11.3346 14V12.6667C11.3346 11.9594 11.0537 11.2811 10.5536 10.781C10.0535 10.281 9.37521 10 8.66797 10H3.33464C2.62739 10 1.94911 10.281 1.44902 10.781C0.94892 11.2811 0.667969 11.9594 0.667969 12.6667V14M15.3346 14V12.6667C15.3342 12.0758 15.1375 11.5018 14.7755 11.0349C14.4136 10.5679 13.9067 10.2344 13.3346 10.0867M10.668 2.08667C11.2416 2.23353 11.75 2.56713 12.1131 3.03487C12.4761 3.50261 12.6732 4.07789 12.6732 4.67C12.6732 5.26211 12.4761 5.83739 12.1131 6.30513C11.75 6.77287 11.2416 7.10647 10.668 7.25333M8.66797 4.66667C8.66797 6.13943 7.47406 7.33333 6.0013 7.33333C4.52854 7.33333 3.33464 6.13943 3.33464 4.66667C3.33464 3.19391 4.52854 2 6.0013 2C7.47406 2 8.66797 3.19391 8.66797 4.66667Z" stroke="#828282" stroke-width="1.5" stroke-linecap="round" stroke-linejoin="round"/>
</g>
<defs>
<clipPath id="clip0_5680_35109">
<rect width="16" height="16" fill="white"/>
</clipPath>
</defs>
</svg>
