<svg width="36" height="31" viewBox="0 0 36 31" fill="none" xmlns="http://www.w3.org/2000/svg">
<g id="invest icon ">
<path id="path1" fill-rule="evenodd" clip-rule="evenodd" d="M22.1668 29.5413C20.6811 29.8937 19.1161 30.082 17.5 30.082C7.83502 30.082 0 23.3479 0 15.041C0 6.73408 7.83502 0 17.5 0C27.165 0 35 6.73408 35 15.041C35 17.9799 34.0193 20.722 32.3238 23.0386C31.9363 22.3963 31.4061 21.8278 30.7694 21.3641C31.9811 19.4909 32.6712 17.3342 32.6712 15.039C32.6712 7.83968 25.8809 2.00348 17.5046 2.00348C9.12824 2.00348 2.33789 7.83968 2.33789 15.039C2.33789 22.2383 9.12824 28.0745 17.5046 28.0745C18.6149 28.0745 19.6973 27.972 20.7397 27.7773C21.0784 28.4444 21.5661 29.0427 22.1668 29.5413Z" fill="#828282"/>
<path id="path2" d="M30.7741 23.9986L34.337 22.8766L29.9629 20.8125L30.7741 23.9986Z" fill="#828282"/>
<path id="path3" d="M26.3397 30.8898V22.5977H26.8709V30.8898H26.3397ZM28.1277 25.0853C28.0888 24.7571 27.9312 24.5023 27.6548 24.3209C27.3784 24.1395 27.0394 24.0488 26.6377 24.0488C26.344 24.0488 26.087 24.0963 25.8668 24.1913C25.6487 24.2863 25.4781 24.417 25.355 24.5832C25.2341 24.7495 25.1736 24.9385 25.1736 25.1501C25.1736 25.3272 25.2157 25.4794 25.2999 25.6068C25.3863 25.7321 25.4964 25.8368 25.6303 25.921C25.7642 26.0031 25.9046 26.0711 26.0514 26.1251C26.1983 26.1769 26.3332 26.219 26.4563 26.2514L27.1301 26.4328C27.3028 26.4781 27.495 26.5408 27.7066 26.6207C27.9204 26.7006 28.1245 26.8096 28.3188 26.9478C28.5153 27.0839 28.6773 27.2588 28.8047 27.4726C28.9321 27.6863 28.9958 27.9487 28.9958 28.2597C28.9958 28.6181 28.9019 28.942 28.714 29.2314C28.5283 29.5208 28.2562 29.7507 27.8977 29.9213C27.5414 30.0919 27.1085 30.1772 26.5988 30.1772C26.1238 30.1772 25.7124 30.1006 25.3647 29.9473C25.0192 29.7939 24.7471 29.5802 24.5485 29.3059C24.352 29.0317 24.2407 28.7131 24.2148 28.3504H25.044C25.0656 28.6009 25.1499 28.8082 25.2967 28.9723C25.4457 29.1342 25.6336 29.2552 25.8603 29.3351C26.0892 29.4128 26.3354 29.4517 26.5988 29.4517C26.9055 29.4517 27.1808 29.402 27.4248 29.3027C27.6688 29.2012 27.8621 29.0608 28.0046 28.8816C28.1471 28.7002 28.2184 28.4886 28.2184 28.2467C28.2184 28.0264 28.1569 27.8472 28.0338 27.709C27.9107 27.5708 27.7487 27.4585 27.5479 27.3721C27.3471 27.2858 27.1301 27.2102 26.8968 27.1454L26.0806 26.9122C25.5623 26.7632 25.152 26.5505 24.8497 26.2741C24.5474 25.9977 24.3962 25.636 24.3962 25.189C24.3962 24.8175 24.4966 24.4936 24.6975 24.2172C24.9004 23.9387 25.1725 23.7227 25.5137 23.5694C25.8571 23.4139 26.2404 23.3362 26.6636 23.3362C27.0912 23.3362 27.4712 23.4128 27.8038 23.5662C28.1363 23.7173 28.3998 23.9246 28.5941 24.1881C28.7906 24.4515 28.8943 24.7506 28.9051 25.0853H28.1277Z" fill="#828282"/>
<path id="path4" d="M10.8691 13.6432C10.8691 13.3074 11.1414 13.0352 11.4772 13.0352H13.761C14.0969 13.0352 14.3691 13.3074 14.3691 13.6432V18.0488H10.8691V13.6432Z" fill="#828282"/>
<path id="path5" d="M15.5332 11.6353C15.5332 11.2995 15.8055 11.0273 16.1413 11.0273H18.4251C18.761 11.0273 19.0332 11.2995 19.0332 11.6353V18.0464H15.5332V11.6353Z" fill="#828282"/>
<path id="path6" d="M20.2051 9.63348C20.2051 9.29764 20.4773 9.02539 20.8132 9.02539H23.097C23.4328 9.02539 23.7051 9.29764 23.7051 9.63348V18.05H20.2051V9.63348Z" fill="#828282"/>
<path id="rect6" d="M24.3658 18.0508H10.2033C9.92597 18.0508 9.70117 18.2756 9.70117 18.5529C9.70117 18.8302 9.92597 19.055 10.2033 19.055H24.3658C24.6431 19.055 24.8679 18.8302 24.8679 18.5529C24.8679 18.2756 24.6431 18.0508 24.3658 18.0508Z" fill="#828282"/>
</g>
</svg>
