<svg xmlns="http://www.w3.org/2000/svg" version="1.1" xmlns:xlink="http://www.w3.org/1999/xlink" width="512" height="512" x="0" y="0" viewBox="0 0 512 512" style="enable-background:new 0 0 512 512" xml:space="preserve"><g><path fill="#ff8421" d="M255.732 15h-.522v481.268l12.25-.598c128.1-6.255 228.75-111.938 228.75-240.191C496.209 122.666 388.544 15 255.732 15z" opacity="1" data-original="#ff8421"></path><path fill="#15171a" d="M386.319 387.11c-2.93 2.93-6.77 4.39-10.61 4.39s-7.68-1.46-10.61-4.39l-109.89-109.89-7.5-91.72 7.5-95.12c8.28 0 15 6.71 15 15v144.41l116.11 116.1c5.85 5.86 5.85 15.36 0 21.22z" opacity="1" data-original="#15171a"></path><path fill="#333940" d="M255.209 90.38v186.84l-10.61-10.61a15.027 15.027 0 0 1-4.39-10.61V105.38c0-8.29 6.72-15 15-15z" opacity="1" data-original="#333940"></path><path fill="#15171a" d="M511.209 256c0 68.38-26.63 132.67-74.98 181.02S323.589 512 255.209 512l-5-15 5-15c124.62 0 226-101.38 226-226s-101.38-226-226-226l-5-16.333 5-13.667c68.38 0 132.67 26.63 181.02 74.98s74.98 112.64 74.98 181.02z" opacity="1" data-original="#15171a"></path><g fill="#333940"><path d="M255.209 0v30c-8.28 0-15-6.72-15-15s6.72-15 15-15zM255.209 482v30c-8.28 0-15-6.72-15-15s6.72-15 15-15zM168.059 46.257c1.852 0 3.736-.345 5.561-1.074.054-.021 5.394-2.148 11.142-3.945 6.142-1.919 13.403-3.973 13.476-3.993 7.973-2.252 12.609-10.541 10.357-18.513-2.251-7.972-10.534-12.61-18.512-10.357-.312.088-7.724 2.184-14.269 4.229a203.572 203.572 0 0 0-13.338 4.726c-7.689 3.078-11.426 11.804-8.351 19.494 2.346 5.865 7.979 9.433 13.934 9.433zM107.486 46.865c-.262.192-6.469 4.75-11.882 8.957a202.783 202.783 0 0 0-10.84 9.099c-6.124 5.576-6.567 15.058-.994 21.184a14.962 14.962 0 0 0 11.099 4.904 14.95 14.95 0 0 0 10.089-3.902c.043-.039 4.298-3.901 9.054-7.596 5.082-3.949 11.164-8.416 11.225-8.46 6.679-4.902 8.119-14.289 3.218-20.968-4.903-6.679-14.29-8.12-20.969-3.218zM64.367 107.514c-6.931-4.539-16.227-2.601-20.767 4.329-.178.271-4.396 6.714-7.994 12.552a203.303 203.303 0 0 0-6.966 12.319c-3.783 7.368-.878 16.405 6.488 20.19a14.937 14.937 0 0 0 6.843 1.661c5.442 0 10.694-2.972 13.354-8.144.025-.051 2.659-5.16 5.818-10.285 3.378-5.479 7.511-11.793 7.552-11.856 4.54-6.93 2.601-16.227-4.328-20.766zM14.364 240.256a15.3 15.3 0 0 0 1.766.104c7.503 0 13.984-5.62 14.879-13.254.007-.057.676-5.709 1.85-11.67 1.244-6.313 2.904-13.673 2.921-13.747 1.826-8.08-3.244-16.111-11.325-17.937-8.082-1.827-16.11 3.245-17.937 11.325-.072.316-1.768 7.83-3.093 14.56a203.844 203.844 0 0 0-2.211 13.974c-.966 8.228 4.921 15.681 13.15 16.645zM35.087 307.449a172.656 172.656 0 0 1-2.354-11.576c-1.046-6.35-2.069-13.826-2.079-13.9-1.121-8.208-8.67-13.958-16.892-12.833-8.208 1.121-13.953 8.683-12.833 16.891.044.321 1.088 7.952 2.202 14.717a203.458 203.458 0 0 0 2.824 13.869c1.683 6.841 7.811 11.42 14.554 11.42 1.187 0 2.392-.142 3.596-.438 8.045-1.98 12.962-10.105 10.982-18.15zM60.787 371.262c-3.203-5.582-6.78-12.227-6.816-12.293-3.925-7.296-13.024-10.027-20.315-6.104-7.296 3.924-10.029 13.02-6.104 20.315.153.286 3.804 7.068 7.217 13.014a203.741 203.741 0 0 0 7.501 12c2.903 4.254 7.609 6.543 12.399 6.543 2.911 0 5.854-.846 8.439-2.61 6.843-4.667 8.606-13.998 3.941-20.842-.033-.048-3.265-4.8-6.262-10.023zM122.839 439.246a175.68 175.68 0 0 1-9.375-7.195c-4.955-4.106-10.632-9.077-10.688-9.127-6.229-5.459-15.708-4.836-21.167 1.396-5.46 6.23-4.835 15.707 1.395 21.167.244.214 6.038 5.288 11.318 9.664 5.568 4.614 11 8.451 11.229 8.612a14.932 14.932 0 0 0 8.627 2.74c4.711 0 9.349-2.213 12.271-6.355 4.773-6.768 3.157-16.126-3.61-20.902zM195.392 473.997a172.664 172.664 0 0 1-11.297-3.454c-6.079-2.111-13.137-4.78-13.208-4.807-7.745-2.932-16.404.972-19.338 8.72-2.932 7.748.972 16.406 8.72 19.338.304.115 7.508 2.839 13.986 5.088 6.83 2.372 13.261 4.063 13.531 4.135 1.275.334 2.554.494 3.812.494 6.655 0 12.734-4.462 14.5-11.202 2.102-8.014-2.692-16.212-10.706-18.312z" fill="#333940" opacity="1" data-original="#333940"></path></g></g></svg>