<svg xmlns="http://www.w3.org/2000/svg" viewBox="0 0 296.9 294.47"><g id="Layer_2" data-name="Layer 2"><g id="Layer_1-2" data-name="Layer 1"><path d="M146.23,64.77a87.13,87.13,0,0,1,48.34,14.57l28.67-28.66a127.49,127.49,0,0,0-154,0L97.88,79.33A88,88,0,0,1,146.23,64.77Z"/><path d="M58.57,152.43a87.38,87.38,0,0,1,14.56-48.36L44.44,75.38a127.52,127.52,0,0,0,0,154.05l28.66-28.66A87.18,87.18,0,0,1,58.57,152.43Z"/><path d="M146.23,240.09a87.18,87.18,0,0,1-48.34-14.57L69.23,254.18a127.39,127.39,0,0,0,154,0l-28.67-28.66A87.13,87.13,0,0,1,146.23,240.09Z"/><path d="M248,75.43l-28.67,28.66a87.48,87.48,0,0,1,0,96.68L248,229.43a127.39,127.39,0,0,0,0-154Z"/><path d="M296.9,0c-20.33,23.75-41.23,47-62.33,70-10.5,11.56-21.21,22.92-31.81,34.37l-32.13,34.07-32.45,33.77L121.83,189l-8.18,8.37-8.24,8.32c-22,22.21-44.11,44.22-66.85,65.68,20.32-23.76,41.22-47,62.33-70l7.9-8.64,8-8.58L132.69,167l32.15-34.06,32.45-33.77C208.21,88,219,76.74,230.06,65.69,252,43.48,274.17,21.47,296.9,0Z"/><path d="M179,106.89c-14,16.48-28.46,32.57-43.05,48.5-7.26,8-14.67,15.87-22,23.8L91.65,202.75,69.17,226.09c-7.58,7.7-15.07,15.48-22.73,23.1C31.2,264.52,15.82,279.7,0,294.47,14,278,28.45,261.9,43.05,246c7.25-8,14.67-15.86,22-23.79l22.26-23.56,22.49-23.33c7.57-7.71,15.07-15.48,22.73-23.11C147.77,136.84,163.16,121.66,179,106.89Z"/></g></g></svg>