<svg width="29" height="28" viewBox="0 0 29 28" fill="none" xmlns="http://www.w3.org/2000/svg">
<g id="calendar">
<g id="Icon">
<path d="M22.323 4.75009H6.14853C4.8724 4.75009 3.83789 5.7846 3.83789 7.06073V23.2352C3.83789 24.5113 4.8724 25.5458 6.14853 25.5458H22.323C23.5991 25.5458 24.6336 24.5113 24.6336 23.2352V7.06073C24.6336 5.7846 23.5991 4.75009 22.323 4.75009Z" fill="white"/>
<path d="M18.857 2.43945V7.06073M9.61449 2.43945V7.06073M3.83789 11.682H24.6336M6.14853 4.75009H22.323C23.5991 4.75009 24.6336 5.7846 24.6336 7.06073V23.2352C24.6336 24.5113 23.5991 25.5458 22.323 25.5458H6.14853C4.8724 25.5458 3.83789 24.5113 3.83789 23.2352V7.06073C3.83789 5.7846 4.8724 4.75009 6.14853 4.75009Z" stroke="#828282" stroke-width="2.51534" stroke-linecap="round" stroke-linejoin="round"/>
<path d="M18.857 2.43945V7.06073M9.61449 2.43945V7.06073M3.83789 11.682H24.6336M6.14853 4.75009H22.323C23.5991 4.75009 24.6336 5.7846 24.6336 7.06073V23.2352C24.6336 24.5113 23.5991 25.5458 22.323 25.5458H6.14853C4.8724 25.5458 3.83789 24.5113 3.83789 23.2352V7.06073C3.83789 5.7846 4.8724 4.75009 6.14853 4.75009Z" stroke="#828282" stroke-width="2.51534" stroke-linecap="round" stroke-linejoin="round"/>
</g>
</g>
</svg>
