<svg width="23" height="23" viewBox="0 0 23 23" fill="none" xmlns="http://www.w3.org/2000/svg">
<g id="iconoir:emoji">
<g id="Group">
<path id="Vector" d="M11.5013 21.0846C6.20843 21.0846 1.91797 16.7942 1.91797 11.5013C1.91797 6.20843 6.20843 1.91797 11.5013 1.91797C16.7942 1.91797 21.0846 6.20843 21.0846 11.5013C21.0846 16.7942 16.7942 21.0846 11.5013 21.0846Z" stroke="#828282" stroke-width="1.62105" stroke-linecap="round" stroke-linejoin="round"/>
<path id="Vector_2" d="M15.8145 13.8984C15.8145 13.8984 14.377 15.8151 11.502 15.8151C8.62695 15.8151 7.18945 13.8984 7.18945 13.8984" stroke="#828282" stroke-width="1.62105" stroke-linecap="round" stroke-linejoin="round"/>
<path id="Vector_3" d="M14.8555 8.6263C14.7284 8.6263 14.6065 8.57582 14.5166 8.48596C14.4268 8.3961 14.3763 8.27422 14.3763 8.14714C14.3763 8.02005 14.4268 7.89817 14.5166 7.80831C14.6065 7.71845 14.7284 7.66797 14.8555 7.66797C14.9826 7.66797 15.1044 7.71845 15.1943 7.80831C15.2842 7.89817 15.3346 8.02005 15.3346 8.14714C15.3346 8.27422 15.2842 8.3961 15.1943 8.48596C15.1044 8.57582 14.9826 8.6263 14.8555 8.6263ZM8.14714 8.6263C8.02005 8.6263 7.89817 8.57582 7.80831 8.48596C7.71845 8.3961 7.66797 8.27422 7.66797 8.14714C7.66797 8.02005 7.71845 7.89817 7.80831 7.80831C7.89817 7.71845 8.02005 7.66797 8.14714 7.66797C8.27422 7.66797 8.3961 7.71845 8.48596 7.80831C8.57582 7.89817 8.6263 8.02005 8.6263 8.14714C8.6263 8.27422 8.57582 8.3961 8.48596 8.48596C8.3961 8.57582 8.27422 8.6263 8.14714 8.6263Z" fill="#828282" stroke="#828282" stroke-width="1.62105" stroke-linecap="round" stroke-linejoin="round"/>
</g>
</g>
</svg>
