<svg width="20" height="24" viewBox="0 0 20 24" fill="none" xmlns="http://www.w3.org/2000/svg">
<path id="Vector" d="M10 11.4C9.0528 11.4 8.14439 11.0839 7.47462 10.5213C6.80485 9.95871 6.42857 9.19565 6.42857 8.4C6.42857 7.60435 6.80485 6.84129 7.47462 6.27868C8.14439 5.71607 9.0528 5.4 10 5.4C10.9472 5.4 11.8556 5.71607 12.5254 6.27868C13.1952 6.84129 13.5714 7.60435 13.5714 8.4C13.5714 8.79397 13.4791 9.18407 13.2996 9.54805C13.1201 9.91203 12.857 10.2427 12.5254 10.5213C12.1937 10.7999 11.8 11.0209 11.3667 11.1716C10.9334 11.3224 10.469 11.4 10 11.4ZM10 0C7.34784 0 4.8043 0.884997 2.92893 2.4603C1.05357 4.03561 0 6.17218 0 8.4C0 14.7 10 24 10 24C10 24 20 14.7 20 8.4C20 6.17218 18.9464 4.03561 17.0711 2.4603C15.1957 0.884997 12.6522 0 10 0Z" fill="#828282"/>
</svg>
