<svg width="30" height="30" viewBox="0 0 30 30" fill="none" xmlns="http://www.w3.org/2000/svg">
<g id="image">
<path id="Icon" d="M6.25 26.25H23.75C25.1307 26.25 26.25 25.1307 26.25 23.75V6.25C26.25 4.86929 25.1307 3.75 23.75 3.75H6.25C4.86929 3.75 3.75 4.86929 3.75 6.25V23.75C3.75 25.1307 4.86929 26.25 6.25 26.25ZM6.25 26.25L20 12.5L26.25 18.75M12.5 10.625C12.5 11.6605 11.6605 12.5 10.625 12.5C9.58947 12.5 8.75 11.6605 8.75 10.625C8.75 9.58947 9.58947 8.75 10.625 8.75C11.6605 8.75 12.5 9.58947 12.5 10.625Z" stroke="#828282" stroke-width="1.62105" stroke-linecap="round" stroke-linejoin="round"/>
</g>
</svg>
