<svg width="29" height="27" viewBox="0 0 29 27" fill="none" xmlns="http://www.w3.org/2000/svg">
<path id="Vector" fill-rule="evenodd" clip-rule="evenodd" d="M12.9531 26.7008H12.6224C12.1286 26.7008 11.7282 26.3103 11.7282 25.8281C11.7282 23.2086 8.48296 21.8967 6.58519 23.749C6.23606 24.0897 5.66973 24.0897 5.3206 23.749L3.3955 21.8701C3.04631 21.5293 3.04631 20.9766 3.3955 20.6358C5.2909 18.7859 3.94588 15.6162 1.2652 15.6162C0.771229 15.6162 0.371094 15.2254 0.371094 14.7435V12.0864C0.371094 11.6045 0.771229 11.2137 1.26526 11.2137C3.94588 11.2137 5.29095 8.04401 3.39555 6.19409C3.04636 5.85333 3.04636 5.30058 3.39555 4.95983L5.32065 3.08091C5.66979 2.7401 6.23612 2.7401 6.58525 3.08091C8.48065 4.9309 11.7283 3.61815 11.7283 1.00173C11.7283 0.519552 12.1287 0.129016 12.6224 0.129016H12.9533C12.8908 0.301127 12.8567 0.486164 12.8567 0.678901V7.95832C10.2472 8.46893 8.28137 10.7178 8.28137 13.4149C8.28137 16.112 10.2472 18.3609 12.8567 18.8715V26.1512C12.8566 26.3438 12.8907 26.5288 12.9531 26.7008ZM23.1422 5.47149H28.0502C28.0231 5.41406 27.9848 5.36131 27.9353 5.3134L22.7508 0.285836C22.7016 0.238036 22.6475 0.201183 22.5889 0.175165V4.93139C22.5889 5.22886 22.8374 5.47149 23.1422 5.47149ZM14.5473 26.7013C14.2369 26.7013 13.9838 26.4542 13.9838 26.1512V0.678956C13.9838 0.375989 14.2369 0.128906 14.5473 0.128906H21.4618V4.93139C21.4618 5.836 22.2154 6.57159 23.1422 6.57159H28.0988V26.1611C28.0988 26.4586 27.8501 26.7013 27.5453 26.7013H14.5473ZM19.9783 5.3612H16.7747C16.4635 5.3612 16.2112 5.60746 16.2112 5.91125C16.2112 6.21504 16.4635 6.4613 16.7747 6.4613H19.9783C20.2895 6.4613 20.5419 6.21504 20.5419 5.91125C20.5419 5.60746 20.2895 5.3612 19.9783 5.3612ZM24.0368 9.33333H16.7747C16.4634 9.33333 16.2111 9.57959 16.2111 9.88338C16.2111 10.1872 16.4634 10.4334 16.7747 10.4334H24.0367C24.348 10.4334 24.6003 10.1872 24.6003 9.88338C24.6004 9.57959 24.348 9.33333 24.0368 9.33333ZM24.0368 13.3058H16.7747C16.4634 13.3058 16.2111 13.552 16.2111 13.8558C16.2111 14.1596 16.4634 14.4059 16.7747 14.4059H24.0367C24.348 14.4059 24.6003 14.1596 24.6003 13.8558C24.6004 13.552 24.348 13.3058 24.0368 13.3058ZM24.0368 17.2779H16.7747C16.4634 17.2779 16.2111 17.5242 16.2111 17.828C16.2111 18.1318 16.4634 18.378 16.7747 18.378H24.0367C24.348 18.378 24.6003 18.1318 24.6003 17.828C24.6004 17.5242 24.348 17.2779 24.0368 17.2779ZM24.0368 21.2504H16.7747C16.4634 21.2504 16.2111 21.4966 16.2111 21.8004C16.2111 22.1042 16.4634 22.3505 16.7747 22.3505H24.0367C24.348 22.3505 24.6003 22.1042 24.6003 21.8004C24.6004 21.4967 24.348 21.2504 24.0368 21.2504Z" fill="#828282"/>
</svg>
