<svg width="16" height="16" viewBox="0 0 16 16" fill="none" xmlns="http://www.w3.org/2000/svg">
<g clip-path="url(#clip0_5680_35110)">
<path d="M14.6654 7.99967C14.6654 11.6816 11.6806 14.6663 7.9987 14.6663M14.6654 7.99967C14.6654 4.31778 11.6806 1.33301 7.9987 1.33301M14.6654 7.99967H1.33203M7.9987 14.6663C4.3168 14.6663 1.33203 11.6816 1.33203 7.99967M7.9987 14.6663C9.66622 12.8408 10.6139 10.4717 10.6654 7.99967C10.6139 5.5277 9.66622 3.15858 7.9987 1.33301M7.9987 14.6663C6.33118 12.8408 5.38353 10.4717 5.33203 7.99967C5.38353 5.5277 6.33118 3.15858 7.9987 1.33301M1.33203 7.99967C1.33203 4.31778 4.3168 1.33301 7.9987 1.33301" stroke="#828282" stroke-width="1.5" stroke-linecap="round" stroke-linejoin="round"/>
</g>
<defs>
<clipPath id="clip0_5680_35110">
<rect width="16" height="16" fill="white"/>
</clipPath>
</defs>
</svg>
