<svg width="42" height="42" viewBox="0 0 42 42" fill="none" xmlns="http://www.w3.org/2000/svg">
<path d="M41.3333 9.13178V32.2015C41.3313 34.6228 40.3685 36.9443 38.6564 38.6564C36.9443 40.3685 34.6228 41.3313 32.2015 41.3333H9.13178C8.11739 41.3363 7.10984 41.1673 6.15193 40.8335C4.3561 40.2132 2.79839 39.0484 1.69571 37.5012C0.593032 35.954 0.000280539 34.1015 0 32.2015V9.13178C0.0020364 6.7105 0.964786 4.38898 2.67688 2.67688C4.38898 0.964786 6.71051 0.0020364 9.13178 0H32.2015C34.6228 0.0020364 36.9443 0.964786 38.6564 2.67688C40.3685 4.38898 41.3313 6.7105 41.3333 9.13178Z" fill="#E1F5FE"/>
<path d="M25.9535 34.1237V41.333H9.13178C8.11739 41.336 7.10984 41.167 6.15193 40.8332C4.3561 40.2129 2.79839 39.0481 1.69571 37.5009C0.593032 35.9537 0.000280539 34.1012 0 32.2012V26.9529L6.07504 22.8964C6.98301 22.2888 8.05768 21.9789 9.14979 22.0099C10.2419 22.0409 11.2973 22.4113 12.1693 23.0695L18.8787 28.1063L25.3767 32.9702C25.557 33.1034 25.7033 33.2773 25.8035 33.4778C25.9038 33.6782 25.9551 33.8996 25.9535 34.1237Z" fill="#62D8B6"/>
<path d="M14.1783 15.1397C16.8327 15.1397 18.9845 12.9879 18.9845 10.3335C18.9845 7.67915 16.8327 5.52734 14.1783 5.52734C11.5239 5.52734 9.37207 7.67915 9.37207 10.3335C9.37207 12.9879 11.5239 15.1397 14.1783 15.1397Z" fill="#FFDE76"/>
<path d="M41.3337 22.6662V32.2017C41.3317 34.623 40.3689 36.9445 38.6568 38.6566C36.9447 40.3687 34.6232 41.3315 32.2019 41.3335H9.13219C8.1178 41.3365 7.11025 41.1675 6.15234 40.8337L27.2996 19.6864C28.0808 18.8993 29.0905 18.3788 30.1848 18.1993C31.2791 18.0198 32.4022 18.1904 33.3939 18.6867L41.3337 22.6662Z" fill="#4CC19D"/>
</svg>
