<svg width="19" height="24" viewBox="0 0 19 24" fill="none" xmlns="http://www.w3.org/2000/svg">
<g id="Group 2037">
<path id="Vector" fill-rule="evenodd" clip-rule="evenodd" d="M1.16265 21.6739H17.4398C17.7482 21.6739 18.0439 21.7964 18.2619 22.0144C18.48 22.2324 18.6025 22.5282 18.6025 22.8365C18.6025 23.1449 18.48 23.4406 18.2619 23.6586C18.0439 23.8767 17.7482 23.9992 17.4398 23.9992H1.16265C0.854299 23.9992 0.558573 23.8767 0.340534 23.6586C0.122494 23.4406 0 23.1449 0 22.8365C0 22.5282 0.122494 22.2324 0.340534 22.0144C0.558573 21.7964 0.854299 21.6739 1.16265 21.6739ZM0 15.8606L11.6265 4.23406L15.1145 7.72202L3.48796 19.3486H0V15.8606ZM12.7892 3.0714L15.1145 0.746094L18.6025 4.23406L16.276 6.56053L12.7892 3.0714Z" fill="#212124"/>
</g>
</svg>
