<svg width="38" height="29" viewBox="0 0 38 29" fill="none" xmlns="http://www.w3.org/2000/svg">
<path d="M30.1069 11.9586C29.7409 6.37975 25.7997 1 18.5714 1C11.9603 1 6.862 5.83722 6.592 12.2927C2.97486 13.4006 1 17.211 1 19.9844C1 24.2546 4.60514 28 8.71429 28H14.2857C14.3994 28 14.5084 27.9556 14.5888 27.8764C14.6691 27.7973 14.7143 27.69 14.7143 27.5781C14.7143 27.4662 14.6691 27.3589 14.5888 27.2798C14.5084 27.2007 14.3994 27.1562 14.2857 27.1562H8.71429C5.06114 27.1562 1.85714 23.8049 1.85714 19.9844C1.85714 17.4101 4.14914 12.8125 8.71429 12.8125H10C10.1137 12.8125 10.2227 12.7681 10.303 12.6889C10.3834 12.6098 10.4286 12.5025 10.4286 12.3906C10.4286 12.2787 10.3834 12.1714 10.303 12.0923C10.2227 12.0132 10.1137 11.9687 10 11.9687H8.71429C8.278 11.9687 7.86571 12.0168 7.46371 12.086C7.79971 7.03197 11.7023 1.84375 18.5714 1.84375C25.9326 1.84375 29.2857 7.52978 29.2857 12.8125V14.0781C29.2857 14.19 29.3309 14.2973 29.4112 14.3764C29.4916 14.4556 29.6006 14.5 29.7143 14.5C29.8279 14.5 29.937 14.4556 30.0173 14.3764C30.0977 14.2973 30.1429 14.19 30.1429 14.0781V12.8049C32.7306 13.0842 36.1429 15.8179 36.1429 19.9844C36.1429 23.2126 32.9791 27.1562 29.2857 27.1562H22.8571C20.0817 27.1562 19 26.0914 19 23.3594V11.7857L22.4954 15.2197C22.5349 15.2601 22.5821 15.2923 22.6344 15.3144C22.6867 15.3366 22.7429 15.3483 22.7998 15.3489C22.8567 15.3495 22.9131 15.3389 22.9658 15.3177C23.0185 15.2966 23.0664 15.2653 23.1067 15.2258C23.147 15.1862 23.1789 15.1392 23.2005 15.0874C23.2221 15.0355 23.2331 14.98 23.2327 14.924C23.2322 14.868 23.2205 14.8126 23.1981 14.7611C23.1757 14.7096 23.1432 14.663 23.1023 14.624L19.2786 10.8677C18.7694 10.3682 18.3743 10.3682 17.866 10.8677L14.0423 14.624C13.9642 14.7036 13.921 14.8102 13.922 14.9208C13.923 15.0314 13.968 15.1372 14.0475 15.2154C14.127 15.2936 14.2345 15.338 14.3468 15.339C14.4592 15.3399 14.5675 15.2974 14.6483 15.2206L18.1429 11.7857V23.3594C18.1429 26.569 19.5966 28 22.8571 28H29.2857C33.4403 28 37 23.5922 37 19.9844C37 15.6247 33.3803 12.2151 30.1069 11.9586Z" stroke="#828282"/>
</svg>
