<svg width="27" height="27" viewBox="0 0 27 27" fill="none" xmlns="http://www.w3.org/2000/svg">
<path id="Vector" d="M23.9914 0C24.787 0 25.55 0.31606 26.1126 0.87865C26.6752 1.44124 26.9913 2.20428 26.9913 2.9999V23.9992C26.9913 24.7948 26.6752 25.5578 26.1126 26.1204C25.55 26.683 24.787 26.9991 23.9914 26.9991H2.99209C2.19646 26.9991 1.43343 26.683 0.870837 26.1204C0.308247 25.5578 -0.0078125 24.7948 -0.0078125 23.9992V2.9999C-0.0078125 2.20428 0.308247 1.44124 0.870837 0.87865C1.43343 0.31606 2.19646 0 2.99209 0H23.9914ZM23.2414 23.2492V15.2995C23.2414 14.0026 22.7262 12.7589 21.8092 11.8418C20.8922 10.9248 19.6484 10.4096 18.3516 10.4096C17.0766 10.4096 15.5917 11.1896 14.8717 12.3596V10.6946H10.6868V23.2492H14.8717V15.8545C14.8717 14.6995 15.8017 13.7545 16.9566 13.7545C17.5135 13.7545 18.0477 13.9758 18.4415 14.3696C18.8353 14.7634 19.0565 15.2975 19.0565 15.8545V23.2492H23.2414ZM5.81199 8.33972C6.48031 8.33972 7.12126 8.07423 7.59384 7.60165C8.06641 7.12908 8.3319 6.48812 8.3319 5.8198C8.3319 4.42485 7.20694 3.28489 5.81199 3.28489C5.13969 3.28489 4.49492 3.55196 4.01953 4.02735C3.54415 4.50274 3.27708 5.1475 3.27708 5.8198C3.27708 7.21475 4.41704 8.33972 5.81199 8.33972ZM7.89692 23.2492V10.6946H3.74206V23.2492H7.89692Z" fill="#212124"/>
</svg>
