<svg width="25" height="25" viewBox="0 0 25 25" fill="none" xmlns="http://www.w3.org/2000/svg">
<path id="Union" fill-rule="evenodd" clip-rule="evenodd" d="M24 12.5C24 18.8513 18.8513 24 12.5 24C6.14873 24 1 18.8513 1 12.5C1 6.14873 6.14873 1 12.5 1C18.8513 1 24 6.14873 24 12.5ZM25 12.5C25 19.4036 19.4036 25 12.5 25C5.59644 25 0 19.4036 0 12.5C0 5.59644 5.59644 0 12.5 0C19.4036 0 25 5.59644 25 12.5ZM8.45794 8.11414C8.3637 8.24776 8.32638 8.41334 8.35418 8.57447C8.38207 8.73558 8.47281 8.87903 8.60643 8.97327C8.74005 9.06751 8.90563 9.10484 9.06676 9.07703L14.0951 8.20825L8.58601 17.7502C8.50422 17.8919 8.48206 18.0602 8.52439 18.2182C8.56673 18.3762 8.6701 18.5109 8.81176 18.5927C8.95342 18.6745 9.12177 18.6967 9.27977 18.6543C9.43777 18.612 9.57248 18.5086 9.65427 18.367L15.165 8.82215L16.9284 13.6157C16.9849 13.7691 17.1 13.8939 17.2484 13.9625C17.3968 14.0311 17.5664 14.0379 17.7199 13.9815C17.8734 13.925 17.9981 13.8099 18.0667 13.6615C18.1353 13.5131 18.1421 13.3435 18.0857 13.19L15.8684 7.16248C15.8149 7.02718 15.7155 6.91563 15.5884 6.84684C15.4675 6.77574 15.3253 6.74769 15.1854 6.76842L8.85675 7.86189C8.69563 7.88978 8.55218 7.98051 8.45794 8.11414Z" fill="#346ABB"/>
</svg>
