<svg width="24" height="24" viewBox="0 0 24 24" fill="none" xmlns="http://www.w3.org/2000/svg">
<path fill-rule="evenodd" clip-rule="evenodd" d="M10.8905 23.9996H10.6042C10.1769 23.9996 9.83029 23.6469 9.83029 23.2114C9.83029 20.8454 7.02132 19.6605 5.37868 21.3335C5.07649 21.6413 4.58629 21.6413 4.2841 21.3335L2.6178 19.6365C2.31556 19.3287 2.31556 18.8295 2.6178 18.5217C4.25839 16.8509 3.0942 13.9881 0.773902 13.9881C0.346341 13.988 0 13.635 0 13.1998V10.8C0 10.3647 0.346341 10.0117 0.773951 10.0117C3.09419 10.0117 4.25844 7.14888 2.61785 5.47803C2.31561 5.17027 2.31561 4.67103 2.61785 4.36326L4.28415 2.66624C4.58634 2.35842 5.07654 2.35842 5.37873 2.66624C7.01932 4.33713 9.83034 3.15146 9.83034 0.788325C9.83034 0.352829 10.1769 9.93532e-05 10.6043 9.93532e-05H10.8906C10.8365 0.155549 10.807 0.322673 10.807 0.496752V7.07148C8.54834 7.53266 6.84683 9.56378 6.84683 11.9998C6.84683 14.4358 8.54834 16.467 10.807 16.9282V23.5031C10.807 23.6772 10.8365 23.8443 10.8905 23.9996ZM19.7098 4.82539H23.958C23.9345 4.77352 23.9013 4.72588 23.8585 4.68261L19.371 0.141738C19.3284 0.0985655 19.2816 0.0652797 19.2308 0.041781V4.33758C19.2308 4.60625 19.446 4.82539 19.7098 4.82539ZM12.2704 24C12.0017 24 11.7826 23.7768 11.7826 23.5032V0.496802C11.7826 0.223163 12.0017 0 12.2704 0H18.2553V4.33758C18.2553 5.15462 18.9076 5.81899 19.7098 5.81899H24V23.5121C24 23.7808 23.7848 24 23.521 24H12.2704ZM16.9712 4.72578H14.1983C13.9289 4.72578 13.7105 4.9482 13.7105 5.22258C13.7105 5.49696 13.9289 5.71938 14.1983 5.71938H16.9712C17.2406 5.71938 17.459 5.49696 17.459 5.22258C17.459 4.9482 17.2406 4.72578 16.9712 4.72578ZM20.4841 8.31338H14.1983C13.9289 8.31338 13.7105 8.5358 13.7105 8.81018C13.7105 9.08457 13.9289 9.30699 14.1983 9.30699H20.484C20.7535 9.30699 20.9719 9.08457 20.9719 8.81018C20.9719 8.5358 20.7535 8.31338 20.4841 8.31338ZM20.4841 11.9013H14.1983C13.9289 11.9013 13.7105 12.1237 13.7105 12.3981C13.7105 12.6725 13.9289 12.8949 14.1983 12.8949H20.484C20.7535 12.8949 20.9719 12.6725 20.9719 12.3981C20.9719 12.1237 20.7535 11.9013 20.4841 11.9013ZM20.4841 15.4889H14.1983C13.9289 15.4889 13.7105 15.7113 13.7105 15.9857C13.7105 16.2601 13.9289 16.4825 14.1983 16.4825H20.484C20.7535 16.4825 20.9719 16.2601 20.9719 15.9857C20.9719 15.7114 20.7535 15.4889 20.4841 15.4889ZM20.4841 19.0768H14.1983C13.9289 19.0768 13.7105 19.2992 13.7105 19.5736C13.7105 19.848 13.9289 20.0704 14.1983 20.0704H20.484C20.7535 20.0704 20.9719 19.848 20.9719 19.5736C20.9719 19.2993 20.7535 19.0768 20.4841 19.0768Z" fill="#9747FF"/>
</svg>
