<svg width="53" height="44" viewBox="0 0 53 44" fill="none" xmlns="http://www.w3.org/2000/svg">
<path d="M1.4209 43.2688C1.69288 42.6026 1.95374 41.9319 2.2487 41.2762C2.29316 41.178 2.49844 41.1054 2.62962 41.1046C4.44455 41.0934 6.26022 41.0911 8.07516 41.1031C8.33898 41.1046 8.48868 41.0319 8.63171 40.7974C15.3453 29.8026 22.067 18.813 28.7879 7.82271C30.3368 5.28982 31.8872 2.75694 33.4368 0.224063C33.4879 0.140133 33.545 0.0599498 33.6443 0C33.5887 0.114654 33.5376 0.232306 33.4768 0.344712C28.4655 9.69314 23.4543 19.0431 18.4356 28.3877C18.3067 28.6275 18.303 28.7954 18.443 29.0307C20.086 31.7839 21.7172 34.5438 23.3505 37.3023C23.4372 37.4484 23.518 37.599 23.6329 37.8036C22.6939 37.8036 21.8105 37.8104 20.9286 37.7924C20.8449 37.7909 20.7434 37.6493 20.6841 37.5511C20.2557 36.8377 19.8296 36.122 19.4176 35.3981C19.296 35.1838 19.1678 35.0789 18.9032 35.0826C17.656 35.0991 16.4087 35.0984 15.1622 35.0834C14.9117 35.0804 14.7924 35.1741 14.6805 35.3839C13.2784 38.0142 11.8688 40.6408 10.4615 43.2681C7.44819 43.2688 4.43492 43.2688 1.4209 43.2688ZM18.4037 33.6881C17.9072 32.8443 17.4344 32.0402 16.9364 31.1942C16.4858 32.0357 16.0552 32.839 15.6009 33.6881C16.5562 33.6881 17.4559 33.6881 18.4037 33.6881Z" fill="black"/>
<path d="M22.1719 25.3613C22.4542 24.8292 22.7418 24.3796 22.9374 23.8917C23.1257 23.4226 23.4073 23.3132 23.889 23.3155C28.4334 23.3364 32.9777 23.3275 37.5228 23.3305C37.7555 23.3305 37.9949 23.3319 38.2209 23.3829C38.9665 23.55 39.4245 24.0971 39.4304 24.8689C39.4445 26.6172 39.4467 28.3655 39.4282 30.1138C39.4193 30.9546 38.9895 31.5713 38.3225 31.7512C38.0905 31.8141 37.8348 31.7961 37.5895 31.8014C37.2353 31.8089 36.8803 31.8029 36.4468 31.8029C37.8919 33.8374 39.2955 35.8143 40.7525 37.8645C40.3501 37.8645 40.0248 37.8645 39.6987 37.8645C39.0562 37.8645 38.4136 37.8503 37.7726 37.8713C37.5265 37.8795 37.3998 37.7866 37.2731 37.5888C36.1051 35.7551 34.9231 33.9303 33.7581 32.0944C33.621 31.8785 33.4831 31.7901 33.229 31.7969C32.5509 31.8149 31.872 31.8029 31.1472 31.8029C31.1472 33.8187 31.1472 35.8203 31.1472 37.8458C28.9832 37.8458 26.8652 37.8458 24.6694 37.8458C24.9406 37.4891 25.2289 37.1954 25.4164 36.8461C25.8306 36.0758 26.4257 35.7903 27.2817 35.9147C27.7523 35.9829 28.2399 35.9267 28.7476 35.9267C28.7476 32.4031 28.7476 28.9028 28.7476 25.3605C26.5843 25.3613 24.4181 25.3613 22.1719 25.3613ZM31.1457 29.3517C31.2028 29.3741 31.2243 29.3906 31.2465 29.3906C33.0741 29.3959 34.9009 29.4056 36.7284 29.3989C37.1516 29.3974 37.4176 29.1254 37.4354 28.6907C37.4636 28.0178 37.4717 27.3441 37.4732 26.6712C37.4747 25.9203 37.2116 25.6595 36.472 25.6588C34.8171 25.6573 33.163 25.658 31.5081 25.6588C31.3896 25.6588 31.2717 25.6692 31.145 25.676C31.1457 26.9207 31.1457 28.1302 31.1457 29.3517Z" fill="black"/>
<path d="M52.8859 23.4111C52.5042 24.0698 52.1633 24.6715 51.8031 25.262C51.7535 25.3437 51.6053 25.4067 51.5023 25.4067C49.4154 25.4127 47.3277 25.4052 45.2408 25.4104C44.9992 25.4112 44.748 25.4396 44.5175 25.5093C44.2077 25.6023 44.0239 25.8383 44.0202 26.1763C44.0084 27.1625 43.9958 28.1486 44.0039 29.1341C44.0069 29.514 44.2262 29.7111 44.6487 29.771C44.7947 29.792 44.9444 29.783 45.0926 29.783C47.118 29.7838 49.1434 29.7718 51.1688 29.7943C51.5267 29.798 51.9017 29.8969 52.2345 30.0355C52.6524 30.2094 52.8555 30.5721 52.854 31.048C52.8488 32.8839 52.8555 34.7199 52.8503 36.5551C52.8481 37.2677 52.5324 37.8845 51.5371 37.8702C48.5001 37.8268 45.4616 37.862 42.4232 37.8665C42.2786 37.8665 42.1334 37.8665 41.917 37.8665C42.2735 37.2048 42.5877 36.5911 42.9397 35.9998C42.9968 35.9039 43.2206 35.8777 43.368 35.8747C44.3433 35.8552 45.3193 35.8544 46.2946 35.8402C47.467 35.823 48.6394 35.799 49.8118 35.775C50.3662 35.7638 50.7011 35.422 50.7063 34.8555C50.7123 34.1564 50.7063 33.4572 50.7063 32.7573C50.7056 31.8685 50.4225 31.5785 49.525 31.5875C48.1548 31.601 46.7845 31.6302 45.4149 31.6475C44.7606 31.6557 44.1054 31.6617 43.4511 31.6482C42.9768 31.6385 42.544 31.4699 42.249 31.0892C42.1 30.8973 41.977 30.6246 41.9741 30.3863C41.9496 28.4132 41.9526 26.4401 41.954 24.467C41.9548 23.8255 42.3342 23.4163 42.953 23.4148C46.2368 23.4073 49.5221 23.4111 52.8859 23.4111Z" fill="black"/>
<path d="M0 25.5237C0 24.7316 0 23.9874 0 23.2148C5.03497 23.2148 10.0677 23.2148 15.136 23.2148C15.1005 23.298 15.0745 23.385 15.0293 23.4614C14.6736 24.0594 14.306 24.6506 13.9622 25.2546C13.848 25.4547 13.7176 25.5229 13.493 25.5222C11.8382 25.5132 10.1826 25.5177 8.52773 25.5177C8.39286 25.5177 8.25798 25.5177 8.07419 25.5177C8.07419 29.5883 8.07419 33.6386 8.07419 37.7235C7.20711 37.7235 6.3882 37.7235 5.52483 37.7235C5.52483 33.6746 5.52483 29.6235 5.52483 25.5252C3.66173 25.5237 1.84161 25.5237 0 25.5237Z" fill="black"/>
</svg>
