<svg width="21" height="21" viewBox="0 0 21 21" fill="none" xmlns="http://www.w3.org/2000/svg">
<g id="Icon/Google - Original" clip-path="url(#clip0_7633_52414)">
<path id="Vector" d="M20.3081 10.7302C20.3081 10.0504 20.253 9.36699 20.1354 8.69824H10.7031V12.5491H16.1046C15.8804 13.791 15.1602 14.8897 14.1057 15.5878V18.0864H17.3282C19.2205 16.3448 20.3081 13.7726 20.3081 10.7302Z" fill="#4285F4"/>
<path id="Vector_2" d="M10.7019 20.5008C13.3989 20.5008 15.6734 19.6152 17.3306 18.0867L14.1081 15.588C13.2115 16.198 12.0541 16.5434 10.7056 16.5434C8.09669 16.5434 5.88468 14.7833 5.091 12.417H1.76562V14.9928C3.46322 18.3696 6.92087 20.5008 10.7019 20.5008Z" fill="#34A853"/>
<path id="Vector_3" d="M5.08857 12.4172C4.66969 11.1753 4.66969 9.83044 5.08857 8.58848V6.0127H1.76688C0.348541 8.83834 0.348541 12.1674 1.76688 14.993L5.08857 12.4172Z" fill="#FBBC04"/>
<path id="Vector_4" d="M10.7019 4.45805C12.1276 4.436 13.5055 4.97247 14.538 5.95722L17.393 3.10218C15.5852 1.40459 13.1858 0.471278 10.7019 0.500674C6.92087 0.500674 3.46322 2.63185 1.76562 6.01234L5.08732 8.58813C5.87733 6.21811 8.09302 4.45805 10.7019 4.45805Z" fill="#EA4335"/>
</g>
<defs>
<clipPath id="clip0_7633_52414">
<rect width="20" height="20" fill="white" transform="translate(0.5 0.5)"/>
</clipPath>
</defs>
</svg>
