<svg width="31" height="30" viewBox="0 0 31 30" fill="none" xmlns="http://www.w3.org/2000/svg">
<path id="Vector" d="M17.0423 0.00184553C18.1369 -0.00235466 19.2314 0.00864614 20.3257 0.0348445L20.6167 0.0453441C20.9527 0.0573437 21.2842 0.0723432 21.6846 0.0903425C23.2806 0.16534 24.3696 0.417332 25.325 0.787819C26.315 1.16881 27.149 1.68479 27.9829 2.51876C28.7455 3.26814 29.3356 4.17462 29.7124 5.17517C30.0829 6.13064 30.3349 7.2211 30.4098 8.81705C30.4278 9.21603 30.4428 9.54902 30.4548 9.88501L30.4638 10.176C30.4905 11.2698 30.502 12.3638 30.4983 13.4579L30.4998 14.5769V16.5418C30.5035 17.6364 30.492 18.7309 30.4653 19.8252L30.4563 20.1162C30.4443 20.4522 30.4293 20.7836 30.4113 21.1841C30.3363 22.7801 30.0814 23.869 29.7124 24.8245C29.3369 25.8261 28.7465 26.7333 27.9829 27.4824C27.2329 28.2449 26.3259 28.835 25.325 29.2119C24.3696 29.5823 23.2806 29.8343 21.6846 29.9093C21.2842 29.9273 20.9527 29.9423 20.6167 29.9543L20.3257 29.9633C19.2314 29.99 18.1369 30.0015 17.0423 29.9978L15.9233 29.9993H13.9599C12.8653 30.003 11.7708 29.9915 10.6765 29.9648L10.3855 29.9558C10.0295 29.9429 9.67346 29.9279 9.31756 29.9108C7.72162 29.8358 6.63266 29.5808 5.67569 29.2119C4.67475 28.8359 3.76811 28.2456 3.01928 27.4824C2.25587 26.7329 1.66516 25.8258 1.28834 24.8245C0.917851 23.869 0.66586 22.7801 0.590862 21.1841C0.574157 20.8282 0.559158 20.4722 0.545864 20.1162L0.538364 19.8252C0.510711 18.7309 0.49821 17.6364 0.500865 16.5418V13.4579C0.496679 12.3638 0.50768 11.2698 0.533864 10.176L0.544364 9.88501C0.556364 9.54902 0.571363 9.21603 0.589362 8.81705C0.66436 7.2196 0.916351 6.13214 1.28684 5.17517C1.66388 4.17413 2.25575 3.2679 3.02078 2.52026C3.7691 1.75641 4.67517 1.16517 5.67569 0.787819C6.63266 0.417332 7.72012 0.16534 9.31756 0.0903425L10.3855 0.0453441L10.6765 0.0378446C11.7703 0.0102047 12.8643 -0.0022962 13.9584 0.00034569L17.0423 0.00184553ZM15.5004 7.50159C14.5066 7.48754 13.5201 7.67112 12.5979 8.04167C11.6758 8.41223 10.8365 8.96236 10.1288 9.6601C9.42113 10.3578 8.85918 11.1893 8.47562 12.1061C8.09207 13.0229 7.89455 14.0068 7.89455 15.0006C7.89455 15.9944 8.09207 16.9783 8.47562 17.8951C8.85918 18.8119 9.42113 19.6433 10.1288 20.3411C10.8365 21.0388 11.6758 21.5889 12.5979 21.9595C13.5201 22.3301 14.5066 22.5136 15.5004 22.4996C17.4894 22.4996 19.397 21.7094 20.8035 20.303C22.2099 18.8965 23.0001 16.9889 23.0001 14.9998C23.0001 13.0108 22.2099 11.1032 20.8035 9.69671C19.397 8.29024 17.4894 7.50159 15.5004 7.50159ZM15.5004 10.5015C16.0981 10.4905 16.692 10.5987 17.2475 10.8198C17.8029 11.0409 18.3088 11.3705 18.7354 11.7893C19.1621 12.2081 19.501 12.7077 19.7324 13.2589C19.9638 13.8102 20.083 14.402 20.0831 14.9998C20.0832 15.5977 19.9642 16.1895 19.733 16.7409C19.5017 17.2922 19.163 17.7919 18.7365 18.2108C18.31 18.6298 17.8043 18.9595 17.2489 19.1808C16.6935 19.4021 16.0996 19.5105 15.5019 19.4997C14.3084 19.4997 13.1639 19.0256 12.32 18.1817C11.4761 17.3378 11.002 16.1933 11.002 14.9998C11.002 13.8064 11.4761 12.6618 12.32 11.818C13.1639 10.9741 14.3084 10.5 15.5019 10.5L15.5004 10.5015ZM23.3751 5.25167C22.8912 5.27103 22.4336 5.47689 22.098 5.8261C21.7625 6.17532 21.5751 6.64082 21.5751 7.1251C21.5751 7.60939 21.7625 8.07488 22.098 8.4241C22.4336 8.77332 22.8912 8.97917 23.3751 8.99854C23.8723 8.99854 24.3492 8.801 24.7009 8.44938C25.0525 8.09776 25.25 7.62087 25.25 7.1236C25.25 6.62634 25.0525 6.14944 24.7009 5.79782C24.3492 5.4462 23.8723 5.24867 23.3751 5.24867V5.25167Z" fill="#212124"/>
</svg>
