<svg width="35" height="28" viewBox="0 0 35 28" fill="none" xmlns="http://www.w3.org/2000/svg">
<path id="Vector" d="M34.05 3.28417C32.7976 3.83915 31.4521 4.21413 30.0377 4.38363C31.4971 3.51035 32.589 2.1359 33.1096 0.51676C31.7384 1.33122 30.2377 1.90451 28.6727 2.2117C27.6203 1.08804 26.2264 0.343255 24.7073 0.0929854C23.1883 -0.157284 21.6291 0.100961 20.2719 0.827629C18.9146 1.5543 17.8352 2.70873 17.2013 4.11169C16.5674 5.51466 16.4144 7.08766 16.7661 8.58648C13.9877 8.44698 11.2697 7.72484 8.78852 6.46692C6.3073 5.20899 4.11831 3.4434 2.36361 1.28473C1.76363 2.3197 1.41864 3.51966 1.41864 4.79761C1.41797 5.94807 1.70128 7.0809 2.24343 8.0956C2.78558 9.1103 3.56981 9.9755 4.52653 10.6144C3.41699 10.5791 2.33192 10.2793 1.36164 9.73995V9.82994C1.36153 11.4435 1.91967 13.0074 2.94136 14.2563C3.96305 15.5052 5.38536 16.3621 6.96695 16.6817C5.93766 16.9603 4.85853 17.0013 3.81106 16.8017C4.25729 18.1901 5.12651 19.4042 6.29702 20.274C7.46754 21.1438 8.88076 21.6258 10.3388 21.6525C7.86367 23.5956 4.80685 24.6496 1.66013 24.6449C1.10272 24.6451 0.545783 24.6125 -0.0078125 24.5474C3.18629 26.6011 6.90446 27.6911 10.7018 27.6868C23.5564 27.6868 30.5836 17.0402 30.5836 7.80651C30.5836 7.50652 30.5761 7.20353 30.5626 6.90354C31.9295 5.91504 33.1094 4.69096 34.047 3.28867L34.05 3.28417Z" fill="#212124"/>
</svg>
