<svg xmlns="http://www.w3.org/2000/svg" version="1.1" xmlns:xlink="http://www.w3.org/1999/xlink" width="512" height="512" x="0" y="0" viewBox="0 0 24 24" style="enable-background:new 0 0 512 512" xml:space="preserve" class=""><g><g fill="#000"><path d="M11.5 13.25a5.75 5.75 0 1 1 5.75-5.75 5.76 5.76 0 0 1-5.75 5.75zm0-10a4.25 4.25 0 1 0 4.25 4.25 4.26 4.26 0 0 0-4.25-4.25z" fill="#000000" opacity="1" data-original="#000000" class=""></path><path d="M2.5 21.25a.76.76 0 0 1-.75-.75 8.77 8.77 0 0 1 8.75-8.75h2a.75.75 0 1 1 0 1.5h-2a7.26 7.26 0 0 0-7.25 7.25.76.76 0 0 1-.75.75zM14.5 22.25A.75.75 0 0 1 14 22l-4-4a.75.75 0 0 1 1-1l3.43 3.43L20.94 13a.752.752 0 0 1 1.12 1l-7 8a.73.73 0 0 1-.53.26z" fill="#000000" opacity="1" data-original="#000000" class=""></path></g></g></svg>