<svg width="60" height="60" viewBox="0 0 60 60" fill="none" xmlns="http://www.w3.org/2000/svg">
<path d="M30.7524 34.5791L37.9562 29.7774C38.0204 29.7346 38.0728 29.6781 38.1089 29.6126C38.1451 29.5471 38.164 29.4746 38.1641 29.4009L38.1641 29.3998C38.1639 29.3259 38.1448 29.2531 38.1084 29.1875C38.0719 29.1218 38.0192 29.0652 37.9546 29.0224L30.7508 24.2517C30.6764 24.2023 30.5887 24.1731 30.4976 24.1671C30.4064 24.1612 30.3153 24.1788 30.2342 24.2179C30.1529 24.2569 30.0848 24.316 30.0373 24.3887C29.9898 24.4614 29.9648 24.5449 29.965 24.63L29.965 26.8752L23.4949 26.875C23.4295 26.875 23.3648 26.887 23.3044 26.9103C23.244 26.9336 23.1892 26.9677 23.143 27.0108C23.0968 27.0539 23.0601 27.105 23.0352 27.1613C23.0102 27.2175 22.9973 27.2778 22.9974 27.3387L22.9976 31.4928C22.9976 31.5537 23.0104 31.6141 23.0354 31.6703C23.0605 31.7266 23.0971 31.7777 23.1434 31.8208C23.1896 31.8639 23.2445 31.898 23.3049 31.9213C23.3653 31.9446 23.4301 31.9565 23.4955 31.9565L29.9648 31.9565L29.9648 34.2024C29.9648 34.3757 30.0696 34.5347 30.2352 34.6147C30.3165 34.6537 30.4079 34.671 30.4992 34.6648C30.5904 34.6585 30.6781 34.6289 30.7524 34.5791Z" fill="#828282"/>
<circle cx="30" cy="30" r="13.5" stroke="#828282"/>
</svg>
