<svg width="16" height="15" viewBox="0 0 16 15" fill="none" xmlns="http://www.w3.org/2000/svg">
<path id="Vector" d="M10.4104 11.6037C10.4104 11.9437 10.143 12.2192 9.81309 12.2192H9.15611C8.36366 12.1867 8.36426 11.0205 9.15611 10.9882H9.81309C10.143 10.9882 10.4104 11.2638 10.4104 11.6037ZM12.6799 8.64942H12.023C11.2305 8.68192 11.2311 9.84816 12.023 9.88038H12.6799C13.4724 9.84788 13.4718 8.68164 12.6799 8.64942ZM12.6799 6.31059H12.023C11.2305 6.34309 11.2311 7.50933 12.023 7.54155H12.6799C13.4724 7.50905 13.4718 6.34281 12.6799 6.31059ZM14.5016 9.11103V5.04885H1.60077V12.1884C1.60077 12.8672 2.13663 13.4194 2.79529 13.4194H13.3071C13.9657 13.4194 14.5016 12.8672 14.5016 12.1884C14.5016 11.8485 14.769 11.573 15.0988 11.573C15.4287 11.573 15.6961 11.8485 15.6961 12.1884C15.6961 13.5459 14.6244 14.6504 13.3071 14.6504H2.79529C1.47797 14.6504 0.40625 13.5459 0.40625 12.1884V2.58693C0.40625 1.22942 1.47797 0.125 2.79529 0.125H3.54186L4.13913 0.125003L4.73638 0.125H7.42405H8.02131H8.61857H11.3361L11.9334 0.125L12.5306 0.125H13.3071C14.6244 0.125 15.6961 1.22942 15.6961 2.58693V9.11103C15.6646 9.92765 14.5329 9.92703 14.5016 9.11103ZM14.5016 3.81789V2.58693C14.5016 1.90817 13.9657 1.35596 13.3071 1.35596H12.5306H11.9334H11.3361H8.61857H8.02131H7.42405H4.73638L4.13913 1.35597L3.54186 1.35596H2.79529C2.13663 1.35596 1.60077 1.90817 1.60077 2.58693V3.81789H14.5016ZM9.81309 6.31059H9.15611C8.36366 6.34309 8.36426 7.50933 9.15611 7.54155H9.81309C10.6055 7.50905 10.6049 6.34281 9.81309 6.31059ZM9.81309 8.64942H9.15611C8.36366 8.68192 8.36426 9.84816 9.15611 9.88038H9.81309C10.6055 9.84788 10.6049 8.68164 9.81309 8.64942ZM4.08179 10.9882H3.4248C2.63236 11.0207 2.63295 12.187 3.4248 12.2192H4.08179C4.87423 12.1867 4.87364 11.0205 4.08179 10.9882ZM4.08179 6.31059H3.4248C2.63236 6.34309 2.63295 7.50933 3.4248 7.54155H4.08179C4.87423 7.50905 4.87364 6.34281 4.08179 6.31059ZM4.08179 8.64942H3.4248C2.63236 8.68192 2.63295 9.84816 3.4248 9.88038H4.08179C4.87423 9.84788 4.87364 8.68164 4.08179 8.64942ZM6.94625 6.31059H6.28926C5.49682 6.34309 5.49741 7.50933 6.28926 7.54155H6.94625C7.73869 7.50905 7.73809 6.34281 6.94625 6.31059ZM6.94625 10.9882H6.28926C5.49682 11.0207 5.49741 12.187 6.28926 12.2192H6.94625C7.73869 12.1867 7.73809 11.0205 6.94625 10.9882ZM6.94625 8.64942H6.28926C5.49682 8.68192 5.49741 9.84816 6.28926 9.88038H6.94625C7.73869 9.84788 7.73809 8.68164 6.94625 8.64942Z" fill="#828282"/>
</svg>
