<svg width="28" height="24" viewBox="0 0 28 24" fill="none" xmlns="http://www.w3.org/2000/svg">
<path d="M10.7523 20.7867V8.61411H11.15L11.2996 8.01837C11.3643 7.76058 11.4452 7.50693 11.5417 7.25891C11.5417 7.25889 11.5417 7.25887 11.5417 7.25886L13.2653 2.83278L13.2653 2.83277C13.6396 1.87163 14.5653 1.23867 15.5968 1.23867C16.9787 1.23867 18.0989 2.35888 18.0989 3.7407V6.67924C18.0989 7.02164 18.0712 7.36305 18.0164 7.70022L17.8678 8.61411H18.7937H25.0894L25.2335 8.64063C25.9756 8.77716 26.5377 9.42876 26.5377 10.21V11.5166C26.5377 12.398 25.8233 13.1125 24.9419 13.1125H24.2657H23.6099L23.4912 13.7574L22.3039 20.2091C22.1993 20.7779 21.7034 21.1908 21.1251 21.1908H11.1565C10.9333 21.1908 10.7523 21.0098 10.7523 20.7867Z" stroke="#828282" stroke-width="1.575"/>
<path d="M1.70937 7.84083C1.70937 7.39823 2.06817 7.03945 2.51075 7.03945H7.19781C7.64042 7.03945 7.99918 7.39822 7.99918 7.84083V21.9605C7.99918 22.4031 7.64041 22.7619 7.19781 22.7619H2.51075C2.06818 22.7619 1.70937 22.4031 1.70937 21.9605V7.84083Z" stroke="#828282" stroke-width="1.575"/>
</svg>
