<svg width="23" height="24" viewBox="0 0 23 24" fill="none" xmlns="http://www.w3.org/2000/svg">
<path id="Vector" d="M13.608 22.43L13.6075 22.4294L11.0937 19.7898C10.8378 19.5211 10.6242 19.1021 10.5154 18.6168C10.4068 18.1324 10.4186 17.6527 10.5363 17.2834C10.5363 17.2834 10.5363 17.2834 10.5363 17.2834L12.2432 11.9332L12.7221 10.432L11.234 10.9501L6.12372 12.7294L6.1237 12.7295C5.94913 12.7902 5.74472 12.8253 5.51304 12.8253C4.84966 12.8253 4.19674 12.5458 3.8214 12.1511L3.82098 12.1507L1.21878 9.4189C1.21867 9.41879 1.21856 9.41867 1.21845 9.41855C0.919075 9.10351 0.848759 8.77789 0.90547 8.52574C0.962297 8.27735 1.15637 8.03207 1.54156 7.89751C1.5416 7.8975 1.54164 7.89748 1.54169 7.89747L20.4723 1.30575L20.4724 1.30572C20.9392 1.14311 21.1668 1.294 21.259 1.42894L21.2596 1.42989C21.3525 1.56533 21.4212 1.82942 21.2885 2.24529L21.2885 2.24532L14.964 22.0718L14.9639 22.0723C14.796 22.5996 14.4793 22.7617 14.2472 22.7617C14.0727 22.7617 13.8502 22.6848 13.608 22.43Z" stroke="#828282" stroke-width="1.575"/>
</svg>
