<svg width="24" height="24" viewBox="0 0 24 24" fill="none" xmlns="http://www.w3.org/2000/svg">
<path d="M5 20.9966H19C20.1046 20.9966 21 20.1012 21 18.9966V4.99658C21 3.89201 20.1046 2.99658 19 2.99658H5C3.89543 2.99658 3 3.89201 3 4.99658V18.9966C3 20.1012 3.89543 20.9966 5 20.9966ZM5 20.9966L16 9.99658L21 14.9966M10 8.49658C10 9.32501 9.32843 9.99658 8.5 9.99658C7.67157 9.99658 7 9.32501 7 8.49658C7 7.66815 7.67157 6.99658 8.5 6.99658C9.32843 6.99658 10 7.66815 10 8.49658Z" stroke="#5070E1" stroke-width="2.8" stroke-linecap="round" stroke-linejoin="round"/>
</svg>
