<svg width="24" height="24" viewBox="0 0 24 24" fill="none" xmlns="http://www.w3.org/2000/svg">
<path id="Union" fill-rule="evenodd" clip-rule="evenodd" d="M2.28203 12.0008V21.8445H12.1258C17.5623 21.8445 21.9695 17.4373 21.9695 12.0008C21.9695 6.56423 17.5623 2.15703 12.1258 2.15703C6.68923 2.15703 2.28203 6.56423 2.28203 12.0008ZM23.5445 12.0008C23.5445 5.69438 18.4322 0.582031 12.1258 0.582031C5.81938 0.582031 0.707031 5.69438 0.707031 12.0008V21.8445V23.4195H2.28203H12.1258C18.4322 23.4195 23.5445 18.3072 23.5445 12.0008ZM11.9679 13.586C11.18 13.586 10.5405 12.9466 10.5405 12.1587C10.5405 11.3708 11.18 10.7313 11.9679 10.7313C12.7558 10.7313 13.3952 11.3708 13.3952 12.1587C13.3952 12.9466 12.7558 13.586 11.9679 13.586ZM7.21006 13.586C6.42216 13.586 5.78271 12.9466 5.78271 12.1587C5.78271 11.3708 6.42216 10.7313 7.21006 10.7313C7.99795 10.7313 8.6374 11.3708 8.6374 12.1587C8.6374 12.9466 7.99795 13.586 7.21006 13.586ZM16.7257 13.586C15.9378 13.586 15.2983 12.9466 15.2983 12.1587C15.2983 11.3708 15.9378 10.7313 16.7257 10.7313C17.5136 10.7313 18.153 11.3708 18.153 12.1587C18.153 12.9466 17.5136 13.586 16.7257 13.586Z" fill="#828282"/>
</svg>
