<svg width="12" height="17" viewBox="0 0 12 17" fill="none" xmlns="http://www.w3.org/2000/svg">
<g id="Union">
<path fill-rule="evenodd" clip-rule="evenodd" d="M6.05168 3.45694C4.6919 3.45694 3.58957 4.55927 3.58957 5.91906C3.58957 7.27885 4.6919 8.38118 6.05168 8.38118C7.41147 8.38118 8.5138 7.27885 8.5138 5.91906C8.5138 4.55927 7.41147 3.45694 6.05168 3.45694ZM4.73631 5.91906C4.73631 5.1926 5.32522 4.60368 6.05168 4.60368C6.77815 4.60368 7.36706 5.1926 7.36706 5.91906C7.36706 6.64552 6.77815 7.23444 6.05168 7.23444C5.32522 7.23444 4.73631 6.64552 4.73631 5.91906Z" fill="#828282"/>
<path fill-rule="evenodd" clip-rule="evenodd" d="M6.05177 -0.00585938C2.80908 -0.00585938 0.126953 2.49954 0.126953 5.64755C0.126953 7.42182 1.08963 9.6211 2.14656 11.5254C3.21892 13.4576 4.45403 15.1989 5.11636 16.0918C5.22384 16.2384 5.3643 16.3576 5.52632 16.4399C5.68915 16.5226 5.8692 16.5656 6.05177 16.5656C6.23435 16.5656 6.41439 16.5226 6.57723 16.4399C6.73866 16.3579 6.87869 16.2392 6.98601 16.0934C7.64808 15.2013 8.88399 13.4597 9.95697 11.5267C11.0139 9.62252 11.9766 7.42309 11.9766 5.64755C11.9766 2.49954 9.29447 -0.00585938 6.05177 -0.00585938ZM1.27369 5.64755C1.27369 3.18824 3.38557 1.14088 6.05177 1.14088C8.71797 1.14088 10.8299 3.18824 10.8299 5.64755C10.8299 7.10063 10.0087 9.07073 8.95434 10.9702C7.91601 12.8408 6.7131 14.5369 6.06518 15.4099L6.06239 15.4137C6.06132 15.4152 6.05984 15.4165 6.05799 15.4174C6.05675 15.4181 6.0554 15.4185 6.05398 15.4187C6.05326 15.4188 6.05252 15.4189 6.05177 15.4189C6.04955 15.4189 6.04742 15.4184 6.04556 15.4174L6.04371 15.4163C6.0427 15.4155 6.04184 15.4147 6.04116 15.4137L6.03843 15.41C5.3905 14.5367 4.18757 12.8398 3.14922 10.9689C2.09483 9.06918 1.27369 7.0993 1.27369 5.64755Z" fill="#828282"/>
</g>
</svg>
