<svg width="42" height="42" viewBox="0 0 42 42" fill="none" xmlns="http://www.w3.org/2000/svg">
<g id="Project menu">
<circle id="Ellipse 54" cx="21" cy="21" r="21" fill="white"/>
<g id="Group">
<path id="Vector" d="M20.96 14.92C21.4902 14.92 21.92 14.4902 21.92 13.96C21.92 13.4298 21.4902 13 20.96 13C20.4298 13 20 13.4298 20 13.96C20 14.4902 20.4298 14.92 20.96 14.92Z" fill="black" stroke="black" stroke-width="1.5" stroke-linecap="round" stroke-linejoin="round"/>
<path id="Vector_2" d="M20.96 21.9591C21.4902 21.9591 21.92 21.5293 21.92 20.9991C21.92 20.4689 21.4902 20.0391 20.96 20.0391C20.4298 20.0391 20 20.4689 20 20.9991C20 21.5293 20.4298 21.9591 20.96 21.9591Z" fill="black" stroke="black" stroke-width="1.5" stroke-linecap="round" stroke-linejoin="round"/>
<path id="Vector_3" d="M20.96 28.9981C21.4902 28.9981 21.92 28.5683 21.92 28.0381C21.92 27.5079 21.4902 27.0781 20.96 27.0781C20.4298 27.0781 20 27.5079 20 28.0381C20 28.5683 20.4298 28.9981 20.96 28.9981Z" fill="black" stroke="black" stroke-width="1.5" stroke-linecap="round" stroke-linejoin="round"/>
</g>
</g>
</svg>
