<svg width="16" height="17" viewBox="0 0 16 17" fill="none" xmlns="http://www.w3.org/2000/svg">
<path id="Vector" d="M8.0043 14.5031C11.3834 14.5031 14.1202 11.7662 14.1202 8.38712C14.1202 5.00806 11.3834 2.27117 8.0043 2.27117C4.62524 2.27117 1.88836 5.00806 1.88836 8.38712C1.88836 11.7662 4.62524 14.5031 8.0043 14.5031ZM8.0043 0.742188C12.209 0.742188 15.6492 4.1824 15.6492 8.38712C15.6492 12.5918 12.209 16.032 8.0043 16.032C3.77666 16.032 0.359375 12.5918 0.359375 8.38712C0.359375 4.1824 3.79959 0.742188 8.0043 0.742188ZM8.38655 9.17454H7.23981V4.56465H8.38655V9.17454Z" fill="#828282"/>
</svg>
