<svg width="22" height="18" viewBox="0 0 22 18" fill="none" xmlns="http://www.w3.org/2000/svg">
<g id="Group">
<path id="Vector" d="M5 5H9" stroke="black" stroke-width="1.5" stroke-linecap="round" stroke-linejoin="round"/>
<path id="Vector_2" d="M19.833 6H17.231C15.446 6 14 7.343 14 9C14 10.657 15.447 12 17.23 12H19.833C19.917 12 19.958 12 19.993 11.998C20.533 11.965 20.963 11.566 20.998 11.065C21 11.033 21 10.994 21 10.917V7.083C21 7.006 21 6.967 20.998 6.935C20.962 6.434 20.533 6.035 19.993 6.002C19.959 6 19.917 6 19.833 6Z" stroke="black" stroke-width="1.5"/>
<path id="Vector_3" d="M19.965 6C19.887 4.128 19.637 2.98 18.828 2.172C17.657 1 15.771 1 12 1H9C5.229 1 3.343 1 2.172 2.172C1 3.343 1 5.229 1 9C1 12.771 1 14.657 2.172 15.828C3.343 17 5.229 17 9 17H12C15.771 17 17.657 17 18.828 15.828C19.637 15.02 19.888 13.872 19.965 12" stroke="black" stroke-width="1.5"/>
<path id="Vector_4" d="M16.9922 9H17.0022" stroke="black" stroke-width="2" stroke-linecap="round" stroke-linejoin="round"/>
</g>
</svg>
